<?xml version="1.0" encoding="utf-8"?>
<!-- Generator: Adobe Illustrator 16.0.4, SVG Export Plug-In . SVG Version: 6.00 Build 0)  -->
<!DOCTYPE svg PUBLIC "-//W3C//DTD SVG 1.1//EN" "http://www.w3.org/Graphics/SVG/1.1/DTD/svg11.dtd">
<svg version="1.1" id="Layer_1" xmlns="http://www.w3.org/2000/svg" xmlns:xlink="http://www.w3.org/1999/xlink" x="0px" y="0px"
	 width="479.4px" height="469.2px" viewBox="0 0 479.4 469.2" enable-background="new 0 0 479.4 469.2" xml:space="preserve">
<g>
	<path fill="#010101" d="M365.16,31.62V0h-20.4v31.62H249.9V0h-20.4v31.62h-94.86V0h-20.4v31.62H0V469.2h479.4V31.62H365.16z
		 M459,448.8H20.4V52.02h93.84v31.62h20.4V52.02h94.86v31.62h20.4V52.02h94.859v31.62h20.4V52.02H459V448.8z"/>
	<rect x="229.5" y="237.659" fill="#010101" width="20.4" height="20.4"/>
	<rect x="287.641" y="237.659" fill="#010101" width="20.399" height="20.4"/>
	<rect x="345.78" y="237.659" fill="#010101" width="20.4" height="20.4"/>
	<rect x="403.92" y="237.659" fill="#010101" width="20.4" height="20.4"/>
	<rect x="55.08" y="302.939" fill="#010101" width="20.4" height="20.4"/>
	<rect x="113.22" y="302.939" fill="#010101" width="20.4" height="20.4"/>
	<rect x="171.36" y="302.939" fill="#010101" width="20.4" height="20.4"/>
	<rect x="229.5" y="302.939" fill="#010101" width="20.4" height="20.4"/>
	<rect x="287.641" y="302.939" fill="#010101" width="20.399" height="20.4"/>
	<rect x="345.78" y="302.939" fill="#010101" width="20.4" height="20.4"/>
	<rect x="403.92" y="302.939" fill="#010101" width="20.4" height="20.4"/>
	<rect x="55.08" y="368.22" fill="#010101" width="20.4" height="20.4"/>
	<rect x="113.22" y="368.22" fill="#010101" width="20.4" height="20.4"/>
	<rect x="171.36" y="368.22" fill="#010101" width="20.4" height="20.4"/>
	<rect x="229.5" y="368.22" fill="#010101" width="20.4" height="20.4"/>
	<rect x="287.641" y="368.22" fill="#010101" width="20.399" height="20.4"/>
	<rect x="45.9" y="162.18" fill="#010101" width="387.6" height="20.4"/>
</g>
</svg>
