<?xml version="1.0" encoding="utf-8"?>
<!-- Generator: Adobe Illustrator 16.0.4, SVG Export Plug-In . SVG Version: 6.00 Build 0)  -->
<!DOCTYPE svg PUBLIC "-//W3C//DTD SVG 1.1//EN" "http://www.w3.org/Graphics/SVG/1.1/DTD/svg11.dtd">
<svg version="1.1" id="Layer_1" xmlns="http://www.w3.org/2000/svg" xmlns:xlink="http://www.w3.org/1999/xlink" x="0px" y="0px"
	 width="464.641px" height="330.969px" viewBox="0 0 464.641 330.969" enable-background="new 0 0 464.641 330.969"
	 xml:space="preserve">
<g>
	<circle fill="#010101" cx="356.429" cy="180.173" r="25.949"/>
	<circle fill="#010101" cx="113.587" cy="180.173" r="25.949"/>
	<path fill="#010101" d="M95.961,114.567h278.093c5.875,0,9.792-5.876,7.344-10.772l-20.562-53.856
		c-1.959-6.854-8.323-11.261-15.178-11.261H124.358c-6.854,0-13.219,4.406-15.178,11.261l-20.563,53.856
		C86.169,108.691,90.086,114.567,95.961,114.567z"/>
	<path fill="#010101" d="M429.379,82.742h-14.198l-20.563-53.366C387.763,11.75,370.138,0,350.553,0h-81.763h-71.971h-77.847
		C99.389,0,81.763,11.75,74.909,29.376L54.346,82.742c0,0,0,0-0.49,0H35.741C16.157,82.742,0,98.899,0,118.483v9.303
		c0,18.115,13.219,32.803,30.355,35.251v76.378c0,11.75,4.406,23.011,12.24,31.824v19.584c0,22.031,18.115,40.146,40.147,40.146
		H122.4c20.563,0,37.21-15.178,39.658-35.251h145.412c2.447,19.584,19.094,35.251,39.657,35.251h39.657
		c22.032,0,40.147-18.115,40.147-40.146v-19.584c7.834-8.323,12.24-19.584,12.24-31.824v-77.847
		c14.688-4.406,25.459-18.115,25.459-34.272v-9.302C465.12,98.41,448.963,82.742,429.379,82.742z M142.963,281.031v9.302
		c0,11.261-9.303,20.563-20.563,20.563H82.743c-11.261,0-20.563-9.303-20.563-20.563v-20.563h80.784V281.031z M407.837,289.843
		c0,11.75-9.303,21.053-20.563,21.053h-39.658c-11.261,0-20.562-9.303-20.562-20.563v-9.792V269.28h80.784V289.843z
		 M446.026,127.295h-0.49c0,8.813-7.344,16.157-16.156,16.157h-13.22c2.448,3.917,3.917,8.813,3.917,13.709v81.273
		c0,9.303-4.896,17.626-12.239,22.521H62.179c-7.344-4.896-12.24-13.219-12.24-22.521v-80.784c0-4.896,1.469-9.792,3.917-13.709
		H35.741c-8.812,0-16.157-7.344-16.157-16.156v-9.303c0-8.812,7.344-16.157,16.157-16.157h18.605c4.406,0,8.813,1.958,11.75,4.896
		L93.514,36.23c3.917-10.282,14.198-16.646,25.949-16.646h231.581c11.75,0,22.032,6.854,25.948,16.646l26.438,68.054
		c2.448-1.469,4.896-1.958,7.834-1.958h18.604c8.813,0,16.157,7.344,16.157,16.157V127.295z"/>
</g>
</svg>
