<?xml version="1.0" encoding="utf-8"?>
<!-- Generator: Adobe Illustrator 16.0.4, SVG Export Plug-In . SVG Version: 6.00 Build 0)  -->
<!DOCTYPE svg PUBLIC "-//W3C//DTD SVG 1.1//EN" "http://www.w3.org/Graphics/SVG/1.1/DTD/svg11.dtd">
<svg version="1.1" id="Layer_1" xmlns="http://www.w3.org/2000/svg" xmlns:xlink="http://www.w3.org/1999/xlink" x="0px" y="0px"
	 width="368.705px" height="277.76px" viewBox="0 0 368.705 277.76" enable-background="new 0 0 368.705 277.76"
	 xml:space="preserve">
<g id="XMLID_2_">
	<g>
		<polygon fill="#E8F3F9" points="348.546,19.26 348.546,201.149 348.097,201.149 19.266,201.149 19.266,19.26 		"/>
		<path fill="#4B5571" d="M368.707,10.75v199.36c0,5.828-4.931,10.75-10.75,10.75H223.558l3.58,37.188l15.68,11.65
			c0.449,0.438,0.899,1.34,0.899,1.79c0,0,0,2.689-1.8,4.479c-0.891,0.891-2.24,1.79-4.92,1.79H129.026
			c-2.69,0-4.03-0.899-4.93-1.79c-1.79-1.789-1.79-4.029-1.79-4.479c0-0.9,0.45-1.352,0.89-1.79l15.68-11.65l4.04-37.188H10.756
			c-5.83,0-10.76-4.922-10.76-10.75V10.75C-0.004,4.93,4.476,0,10.756,0h345.851C362.876,0,367.356,4.93,368.707,10.75z
			 M363.326,210.11V10.75c0-3.58-2.688-6.27-6.271-6.27h-346.3c-3.59,0-6.28,2.69-6.28,6.27v199.36c0,3.59,2.69,6.27,6.28,6.27
			h345.851c3.59,0,6.271-2.68,6.271-6.27H363.326z M238.336,272.38l-15.681-11.64c-0.449,0-0.449-0.9-0.449-1.802l-4.03-38.52
			h-70.78l-4.04,38.52c0,0.9-0.44,1.352-0.89,1.802l-15.68,11.64c0.45,0,0.45,0.45,0.45,0.45c0,0.45,0.44,0.45,1.34,0.45h107.97
			c0.891,0,1.34-0.45,1.34-0.45C238.336,272.83,238.336,272.38,238.336,272.38z"/>
		<path fill="#4B5571" d="M353.026,17.02v186.37c0,1.352-0.899,2.24-2.24,2.24H17.026c-1.35,0-2.24-0.89-2.24-2.24V17.02
			c0-1.34,0.89-2.24,2.24-2.24h333.311C351.676,14.78,352.576,15.68,353.026,17.02z M348.546,201.149V19.26H19.266v181.89h328.831
			H348.546L348.546,201.149z"/>
	</g>
</g>
<path fill="#3A3A3A" d="M254.017,50.38v120h-139v-120H254.017z M250.017,165.38v-81h-131v81H250.017z M250.017,80.38v-26h-131v26
	H250.017z"/>
<path fill="#FFFFFF" d="M250.017,84.38v81h-131v-81H250.017z M222.017,137.38v-16h-75v16H222.017z M222.017,114.38v-16h-75v16
	H222.017z M207.017,154.38v-12h-43v12H207.017z"/>
<rect x="225.017" y="65.38" fill="#821427" width="17" height="4"/>
<path fill="#4B5571" d="M222.017,121.38v16h-75v-16H222.017z M218.017,133.38v-8h-67v8H218.017z"/>
<path fill="#4B5571" d="M222.017,98.38v16h-75v-16H222.017z M218.017,110.38v-8h-67v8H218.017z"/>
<rect x="203.017" y="65.38" fill="#821427" width="17" height="4"/>
<rect x="164.016" y="142.38" fill="#8CD6A7" width="43" height="12"/>
<rect x="181.016" y="65.38" fill="#821427" width="17" height="4"/>
<rect x="159.016" y="65.38" fill="#821427" width="17" height="4"/>
<path fill="#821427" d="M143.166,70.37c0.01,0,0.02,0,0.02,0.01h-0.02V70.37z"/>
<path fill="#821427" d="M142.976,71.23c0.03,0.04,0.06,0.11-0.03,0.14C142.946,71.34,142.956,71.26,142.976,71.23z"/>
<path fill="#821427" d="M142.976,71.22c-0.01,0-0.01,0,0,0.01c-0.02,0.03-0.03,0.11-0.03,0.14h-0.01v-0.18
	C142.936,71.19,142.956,71.21,142.976,71.22z"/>
<g>
	<path fill="#821427" d="M143.679,64.43c0.038,0,0.14,0.044-0.179,0.268c0,0,0.121,0.376-0.427,0.326
		c0.006,0,0.006,0.146-0.172,0.172c0,0,0.064,0.166-0.14,0.191c0.013,0,0.114,0.376-0.236,0.408c0,0,0.108,0.198-0.197,0.281
		c0,0.013,0.063,0.28-0.172,0.28c0.013,0,0.064,0.23-0.159,0.28c-0.026,0-0.044,0.007-0.077,0.007c0,0,0,0.013,0,0.025
		c0,0.032-0.019,0.089-0.089,0.153c-0.007,0.007-0.013,0.013-0.026,0.02c-0.032,0.025-0.07,0.051-0.121,0.083
		c0,0.006,0.006,0.039-0.013,0.077c-0.006,0.013-0.013,0.013-0.019,0.025v-0.013c-0.013,0.013-0.019-0.006-0.032,0.006v-0.051
		c-0.006,0-0.006,0-0.006,0c-0.013,0-0.025,0.07-0.045,0.083v0.051c-0.038,0.02-0.083,0.039-0.146,0.051
		c0.006,0.006,0.006,0.02,0.006,0.045c0,0.012,0,0.019,0,0.032c0,0.083-0.045,0.21-0.217,0.223c0.019,0-0.121,0.363-0.261,0.325
		c0,0.02-0.02,0.287-0.223,0.217c0,0.006-0.025,0.255-0.23,0.223c0.013,0.013-0.032,0.153-0.146,0.064
		c0.007,0.013-0.089,0,0.064,0.217c0,0.013-0.026,0.127-0.204,0.172c0.006-0.012,0.039,0.236-0.032,0.236l0.127,0.205l0.064,0.127
		c0,0,0.433,0.185,0.879,0.338c0.077,0.025,0.147,0.051,0.223,0.07c0,0.006,0.006,0.006,0.006,0.006c0.006,0,0.006,0,0.006,0
		c0.064,0.019,0.134,0.038,0.191,0.058c0.013,0,0.019,0.006,0.025,0.006c0.013,0.006,0.032,0.013,0.045,0.013
		c0.006,0.006,0.006,0.013,0.013,0.013c0.038,0.006,0.076,0.032,0.108,0.038c0.013,0,0.019,0.025,0.032,0.025
		c0.006,0,0.255,0.211-0.083,0.242c0,0,0,0,0,0.006c-0.013-0.006-0.025-0.019-0.025-0.019v0.115
		c-0.013,0.006-0.038,0.006-0.07,0.006c-0.007,0-0.007,0-0.007,0c-0.025,0-0.025,0.032-0.057,0.032c0,0,0.025,0.025,0.025,0.038
		h0.051c0,0.006,0.108,0.013,0.108,0.019c0,0.051-0.205,0.07-0.491,0.108c-0.006,0-0.134-0.064-0.146-0.064
		c0,0-0.006-0.134-0.013-0.134c0,0,0,0-0.007,0c-0.013,0-0.025,0-0.038,0c-0.012,0-0.025,0.141-0.038,0.141
		c-0.019,0-0.038,0.14-0.058,0.14c-0.032,0.006-0.063,0.006-0.102,0.006c-0.013,0-0.02,0-0.032,0c-0.019,0-0.044,0-0.063,0
		c-0.134-0.006-0.287-0.013-0.466-0.032c0.013,0.013-0.688-0.44-1-0.364c0.013,0.013-0.146,0.083-0.287-0.013
		c0,0-0.293-0.146-0.886-0.178c-0.025,0-0.23-0.006-0.504-0.204l-0.229-0.013c0,0-0.019,0.083-0.268,0.045
		c0.013,0.019-0.083,0.095-0.249,0.038c-0.006,0.025,0.025,0.07-0.185,0.038c-0.019,0.006-0.198,0.077-0.351-0.013
		c0-0.013-0.051,0.102-0.268,0.038c-0.013-0.012-0.121,0.153-0.376,0.013c-0.006,0-0.102,0.051-0.204,0.07
		c-0.013,0.006-0.019,0.025-0.025,0.025v0.039l-0.007,0.07c-0.006,0.006-0.019,0.058-0.025,0.102h-0.006
		c-0.013,0.006-0.019,0.013-0.032,0.019c0.006-0.044,0.013-0.115,0.006-0.115c-0.02,0-0.025-0.115-0.038-0.146
		c0.006-0.006,0.013-0.006,0.013-0.006h-0.02l0.007,0.006c-0.007,0-0.013,0-0.02,0.006l-0.032,0.006
		c0,0.006-0.013,0.019-0.019,0.025c0,0,0,0,0,0.007c-0.006,0-0.006,0-0.006,0c-0.013,0.012-0.019,0.019-0.032,0.025
		c-0.007,0-0.007,0.006-0.007,0.006c-0.019,0.006-0.032,0.006-0.051,0.013c-0.006,0-0.006,0-0.006,0c-0.006,0-0.013,0-0.019-0.007
		c-0.006,0-0.013,0-0.013,0c-0.013,0-0.032-0.006-0.045-0.012H135.2c0,0,0,0-0.006,0.006v0.006c-0.006,0.013-0.013,0.02-0.025,0.039
		c0,0,0,0-0.006,0c-0.006,0.013-0.019,0.032-0.038,0.045c-0.007,0-0.013,0.006-0.019,0.013c-0.013,0.006-0.032,0.019-0.051,0.025
		c-0.006,0.006-0.013,0.006-0.013,0.006c-0.058,0.025-0.121,0.038-0.217,0.032c0,0-0.58,0.032-0.771,0.096c0,0,0-0.153-0.401,0.063
		c0-0.012-0.229,0.077-0.172-0.114c0,0-0.332,0.229-0.459,0.229c0.006-0.006,0-0.204-0.013-0.382c0,0.006-0.427,0.3-0.612,0.3
		c0.02,0,0.236-0.325,0.191-0.434c0-0.006-0.408,0.293-0.332-0.032c-0.013,0.013,0.013-0.146-0.229,0.064
		c0,0.013-1.212-0.032-0.689-0.676c0,0,0.332,0.446,0.861,0.478c0.006,0.006,0.249,0.063,1.396-0.727
		c0.006-0.006,0.21-0.172,0.676-0.185c0-0.006,0.204-0.006,0.459-0.044c0.057-0.013,0.115-0.019,0.179-0.032
		c0.013-0.006,0.025-0.013,0.044-0.013c0.032-0.006,0.064-0.019,0.102-0.025c0.025-0.006,0.051-0.012,0.083-0.025
		c0,0,0.006,0,0.013,0c0.019-0.006,0.044-0.019,0.064-0.025c0.051-0.019,0.108-0.038,0.153-0.058
		c0.032-0.019,0.063-0.032,0.089-0.051c0.006,0.006,0.159-0.121,0.529-0.063c0.013,0-0.523-0.338-0.542-0.07
		c0,0-0.038,0.051-0.07-0.038c0,0-0.038-0.077-0.025-0.166c0.013-0.115,0.095-0.255,0.408-0.3c0-0.006,0.281-0.306,1.416-0.185
		c0.006,0,0.185-0.102,0.414-0.179c0-0.006,0.319-0.102,0.676-0.625c0,0,0.223-0.338,0.644-0.746c0.013,0,0.236-0.382,0.51-0.72
		v-0.006c0.006-0.006,0.006-0.013,0.013-0.019c0.032-0.032,0.058-0.07,0.083-0.102c0.025-0.026,0.051-0.057,0.077-0.089
		c0.153-0.16,0.3-0.287,0.427-0.312c0.007,0,1.957-1.198,2.607-2.977c0.007,0.006,0.115,0.523-0.618,1.435
		c0.064-0.064,0.58-0.529,1.326-1.945c0,0.064,0.089,0.771-0.893,1.779c0.006,0,0.899-0.688,1.543-1.67
		c0-0.013,0.178,0.536-1.244,1.785c0.16-0.121,1.486-1.077,1.734-1.3c0,0,0.185,0.299-1.498,1.46
		c0.172-0.096,1.504-0.886,1.855-0.918c0-0.013,0.223,0.102-1.594,1.071c-0.013,0.032,0.172,0,1.485-0.459
		c0.013,0,0.28-0.025-0.657,0.484c0,0-0.077,0.096,0.185,0.02c0,0.013,0.14,0.032-0.281,0.28c0.013,0-0.197,0.14,0.013,0.14
		C143.984,64.073,144.093,64.105,143.679,64.43z"/>
	<path d="M141.288,69.345c0.14-0.605,0.337-1.211,0.318-1.728c0-0.013-0.115-0.025-0.115-0.032c0-0.013,0.077-0.025,0.351-0.038
		c0-0.026-0.102-0.051-0.083-0.089c0.019-0.039-0.115-0.083-0.102-0.127c0.032-0.02,0.057-0.032,0.083-0.051
		c0.006-0.006,0.013-0.013,0.025-0.019c0.013-0.013,0.025-0.019,0.038-0.032c0.006-0.013,0.019-0.02,0.026-0.032
		c0.006-0.006,0.013-0.02,0.019-0.025c0.007-0.013,0.02-0.026,0.026-0.039c0.006-0.019,0.019-0.038,0.025-0.063
		c0.064-0.039,0.108-0.083,0.14-0.121c0.089,0.663,0.134,1.925-0.102,2.562c-0.044-0.006-0.095-0.013-0.095-0.025
		c0-0.007-0.064-0.007-0.07-0.007c-0.063-0.019-0.172-0.038-0.236-0.057c-0.006,0-0.025,0-0.025-0.006l-0.058-0.006h-0.051
		c-0.032-0.013-0.198-0.025-0.198-0.039C141.205,69.364,141.275,69.352,141.288,69.345z"/>
	<path d="M141.282,70.652c0.089-0.013,0.166-0.025,0.235-0.051c-0.841,1.518-2.479,2.531-2.76,2.697l-0.356,0.198l-0.345-0.191
		c-0.28-0.166-2.148-1.313-2.926-3.016c0.051-0.019,0.102-0.044,0.153-0.089l0.006-0.006c0.006,0,0.006,0,0.013-0.006
		c0.025,0,0.045-0.006,0.07-0.02c0.044-0.013,0.083-0.025,0.115-0.044c0,0.019,0,0.032,0,0.032s0,0,0.006,0c0,0,0.006,0,0.013,0
		s0.013-0.025,0.019-0.051c0.019-0.006,0.025-0.006,0.044-0.013c0.013,0,0.025,0,0.039,0c0.006-0.006,0.019-0.006,0.032-0.006
		c0.039-0.006,0.07-0.019,0.102-0.025c0.395,0.841,1.128,1.562,1.721,2.04c0.242,0.178,0.51,0.351,0.791,0.51l0.16,0.083
		l0.153-0.083c0.21-0.121,0.408-0.242,0.599-0.376c0.472-0.364,1.077-0.906,1.537-1.562c0.076,0.006,0.146,0.006,0.216,0.006
		c0.064,0,0.134,0,0.191-0.006c0.006,0,0.006,0,0.013,0C141.18,70.671,141.23,70.665,141.282,70.652z"/>
	<path fill="#821427" d="M140.242,70.601l0.039,0.019c-0.708,0.931-1.734,1.543-1.804,1.588l-0.019,0.006l-0.007,0.007l-0.019,0.013
		l-0.019-0.013l-0.02-0.007l-0.013-0.006c-0.07-0.045-1.154-0.689-1.861-1.658c0,0,0.593-0.389,1.479-0.491
		c0.102,0.025,0.178,0.032,0.21,0.032c0.465,0.025,0.727,0.134,0.771,0.153c0.083,0.051,0.179,0.077,0.274,0.077
		c0.032,0,0.134,0,0.217-0.045C139.535,70.275,139.751,70.308,140.242,70.601z"/>
	<path d="M138.4,64.659l1.058,0.332c-0.057,0.057-0.114,0.127-0.166,0.191c-0.019,0.025-0.038,0.051-0.058,0.07
		c-0.038,0.051-0.083,0.108-0.121,0.166c-0.025,0.032-0.051,0.063-0.076,0.096l-0.637-0.198l-2.869,0.905l-0.013,0.051
		c0,0.006-0.159,0.644-0.179,1.498c-0.032,0.019-0.063,0.044-0.095,0.076c-0.026,0.032-0.051,0.058-0.07,0.096
		c-0.077,0.134-0.089,0.293-0.038,0.453c-0.032,0.013-0.07,0.026-0.102,0.032c-0.013,0.007-0.026,0.007-0.039,0.013
		c-0.025,0.007-0.057,0.013-0.089,0.019c-0.006,0-0.013,0.007-0.025,0.007c-0.051,0.013-0.115,0.025-0.179,0.032
		c-0.096-1.3,0.21-2.372,0.223-2.429l0.102-0.338L138.4,64.659z"/>
</g>
<path fill="#821427" d="M133.096,71.3h0.01c-0.01,0.04-0.02,0.08-0.03,0.08c-0.01,0-0.02,0-0.02,0c-0.01,0-0.01,0-0.01,0
	s0-0.02,0-0.05C133.066,71.32,133.076,71.31,133.096,71.3z"/>
<path fill="#821427" d="M133.016,70.91c0,0-0.01,0-0.02,0.01l-0.01-0.01H133.016z"/>
</svg>
