<?xml version="1.0" encoding="utf-8"?>
<!-- Generator: Adobe Illustrator 16.0.4, SVG Export Plug-In . SVG Version: 6.00 Build 0)  -->
<!DOCTYPE svg PUBLIC "-//W3C//DTD SVG 1.1//EN" "http://www.w3.org/Graphics/SVG/1.1/DTD/svg11.dtd">
<svg version="1.1" id="Layer_1" xmlns="http://www.w3.org/2000/svg" xmlns:xlink="http://www.w3.org/1999/xlink" x="0px" y="0px"
	 width="326.4px" height="424.32px" viewBox="0 0 326.4 424.32" enable-background="new 0 0 326.4 424.32" xml:space="preserve">
<g>
	<path fill="#010101" d="M324.011,79.094L247.307,2.39C245.776,0.86,243.7,0,241.536,0H40.8c-4.507,0-8.16,3.653-8.16,8.16v24.48
		H8.16C3.654,32.64,0,36.293,0,40.8v375.36c0,4.507,3.654,8.16,8.16,8.16h277.44c4.506,0,8.16-3.653,8.16-8.16V391.68h24.479
		c4.507,0,8.16-3.653,8.16-8.16V84.864C326.4,82.7,325.54,80.625,324.011,79.094z M244.8,23.011L303.389,81.6H244.8V23.011z
		 M277.44,408H16.32V48.96h16.32v334.56c0,4.507,3.653,8.16,8.16,8.16h236.64V408z M310.08,375.36h-16.319h-16.32H48.96V48.96V32.64
		V16.32h179.52v73.44c0,4.506,3.653,8.16,8.16,8.16h73.439V375.36z"/>
	<path fill="#010101" d="M81.6,155.04c0,4.506,3.653,8.16,8.16,8.16h179.52c4.507,0,8.16-3.654,8.16-8.16
		c0-4.507-3.653-8.16-8.16-8.16H89.76C85.253,146.88,81.6,150.533,81.6,155.04z"/>
	<path fill="#010101" d="M89.76,212.16H204c4.507,0,8.16-3.653,8.16-8.16s-3.653-8.16-8.16-8.16H89.76
		c-4.507,0-8.16,3.653-8.16,8.16S85.253,212.16,89.76,212.16z"/>
	<path fill="#010101" d="M236.641,244.799H89.76c-4.507,0-8.16,3.654-8.16,8.16c0,4.508,3.653,8.16,8.16,8.16h146.88
		c4.506,0,8.159-3.652,8.159-8.16C244.8,248.454,241.146,244.799,236.641,244.799z"/>
	<path fill="#010101" d="M171.36,293.76h-81.6c-4.507,0-8.16,3.653-8.16,8.16c0,4.506,3.653,8.159,8.16,8.159h81.6
		c4.507,0,8.16-3.653,8.16-8.159C179.521,297.414,175.867,293.76,171.36,293.76z"/>
</g>
</svg>
