<?xml version="1.0" encoding="utf-8"?>
<!-- Generator: Adobe Illustrator 16.0.4, SVG Export Plug-In . SVG Version: 6.00 Build 0)  -->
<!DOCTYPE svg PUBLIC "-//W3C//DTD SVG 1.1//EN" "http://www.w3.org/Graphics/SVG/1.1/DTD/svg11.dtd">
<svg version="1.1" id="Layer_1" xmlns="http://www.w3.org/2000/svg" xmlns:xlink="http://www.w3.org/1999/xlink" x="0px" y="0px"
	 width="474.166px" height="466.698px" viewBox="0 0 474.166 466.698" enable-background="new 0 0 474.166 466.698"
	 xml:space="preserve">
<path fill="#010101" d="M471.518,248.905L243.952,2.916c-3.589-3.888-10.164-3.888-13.757,0L2.648,248.905
	c-3.638,3.917-3.511,10.198,0.279,13.958c3.794,3.795,9.841,3.672,13.474-0.279l29.733-32.142v224.413
	c0,5.454,6.311,11.843,11.579,11.843H173.43c5.268,0,11.579-6.389,11.579-11.843V300.881h104.157v153.97
	c0,5.454,6.291,11.843,11.56,11.843l117.338-0.015c5.268,0,9.527-4.431,9.527-9.89l0.387-226.391l29.777,32.182
	c1.87,2.021,4.372,3.045,6.869,3.045c2.38,0,4.759-0.9,6.609-2.766C475.029,259.104,475.156,252.822,471.518,248.905z
	 M404.883,443.012H312.31V289.037c0-5.453-6.311-11.843-11.579-11.843H173.435c-5.268,0-11.564,6.39-11.564,11.843v153.97H69.14
	c0,0,0.01-237.25,0-237.437L237.068,24.037l167.815,181.544C404.869,205.767,404.883,443.012,404.883,443.012z"/>
</svg>
