<?xml version="1.0" encoding="utf-8"?>
<!-- Generator: Adobe Illustrator 16.0.4, SVG Export Plug-In . SVG Version: 6.00 Build 0)  -->
<!DOCTYPE svg PUBLIC "-//W3C//DTD SVG 1.1//EN" "http://www.w3.org/Graphics/SVG/1.1/DTD/svg11.dtd">
<svg version="1.1" id="Layer_1" xmlns="http://www.w3.org/2000/svg" xmlns:xlink="http://www.w3.org/1999/xlink" x="0px" y="0px"
	 width="550.8px" height="550.8px" viewBox="120.6 30.6 550.8 550.8" enable-background="new 120.6 30.6 550.8 550.8"
	 xml:space="preserve">
<path d="M414.972,273.564h-37.944c-14.075,0-25.092,11.628-25.092,25.092v160.957c0,14.076,11.017,25.092,25.092,25.092h37.944
	c14.076,0,25.094-11.627,25.094-25.092V298.656C439.453,284.58,428.435,273.564,414.972,273.564L414.972,273.564z M395.388,127.908
	c-28.764,0-51.408,23.256-51.408,52.02c0,28.764,23.256,52.021,51.408,52.021c28.764,0,52.02-23.256,52.02-52.02
	C448.019,151.164,424.763,127.908,395.388,127.908L395.388,127.908z M396,30.6C244.224,30.6,120.6,154.224,120.6,306
	c0,151.777,123.624,275.4,275.399,275.4c151.777,0,275.4-123.623,275.4-275.4C671.4,154.224,547.777,30.6,396,30.6L396,30.6z
	 M396,540.396c-129.131,0-234.396-105.266-234.396-234.396c0-128.52,105.264-233.784,234.396-233.784
	c128.52,0,233.785,105.264,233.785,233.784C629.785,435.132,524.519,540.396,396,540.396z"/>
</svg>
