<?xml version="1.0" encoding="utf-8"?>
<!-- Generator: Adobe Illustrator 16.0.4, SVG Export Plug-In . SVG Version: 6.00 Build 0)  -->
<!DOCTYPE svg PUBLIC "-//W3C//DTD SVG 1.1//EN" "http://www.w3.org/Graphics/SVG/1.1/DTD/svg11.dtd">
<svg version="1.1" id="Layer_1" xmlns="http://www.w3.org/2000/svg" xmlns:xlink="http://www.w3.org/1999/xlink" x="0px" y="0px"
	 width="469.869px" height="298.656px" viewBox="0 0 469.869 298.656" enable-background="new 0 0 469.869 298.656"
	 xml:space="preserve">
<g>
	<path fill="#010101" d="M453.281,0H16.583C7.427,0,0,7.427,0,16.583v265.496c0,9.15,7.427,16.577,16.583,16.577h436.698
		c9.156,0,16.588-7.427,16.588-16.582V16.583C469.869,7.427,462.438,0,453.281,0z M453.13,281.917H16.74V16.734h436.39V281.917z"/>
	<path fill="#010101" d="M231.98,235.717c6.133-24.237-9.884-37.605-35.237-43.451c-24.805-5.708-41.896-16.976-26.366-32.513
		c45.408-45.415,11.102-100.68-30.986-100.68s-76.024,55.272-30.617,100.68c15.538,15.537-1.93,26.805-26.743,32.513
		c-25.346,5.846-40.986,19.214-34.86,43.451H231.98z"/>
	<rect x="256.115" y="159.797" fill="#010101" width="112.953" height="19.584"/>
	<rect x="256.115" y="206.773" fill="#010101" width="112.953" height="19.584"/>
	<rect x="256.115" y="112.823" fill="#010101" width="161.114" height="19.583"/>
	<rect x="256.115" y="65.848" fill="#010101" width="161.114" height="19.584"/>
</g>
</svg>
