<?xml version="1.0" encoding="utf-8"?>
<!-- Generator: Adobe Illustrator 16.0.4, SVG Export Plug-In . SVG Version: 6.00 Build 0)  -->
<!DOCTYPE svg PUBLIC "-//W3C//DTD SVG 1.1//EN" "http://www.w3.org/Graphics/SVG/1.1/DTD/svg11.dtd">
<svg version="1.1" id="Layer_1" xmlns="http://www.w3.org/2000/svg" xmlns:xlink="http://www.w3.org/1999/xlink" x="0px" y="0px"
	 width="202.091px" height="61.363px" viewBox="0 0 202.091 61.363" enable-background="new 0 0 202.091 61.363"
	 xml:space="preserve">
<g>
	<path fill="none" d="M107.257,19.188c-0.42,0-0.865,0.336-0.992,0.75h1.713C107.978,19.523,107.685,19.188,107.257,19.188z"/>
	<path fill="none" d="M92.332,19.187c-0.569,0-1.015,0.495-1.1,1.031c-0.09,0.562,0.155,1.093,0.767,1.093
		c0.628,0,1.039-0.507,1.13-1.087C93.219,19.652,92.935,19.187,92.332,19.187z"/>
	<path fill="none" d="M84.144,20.249c0.093-0.58-0.245-1.062-0.85-1.062c-0.605,0-1.096,0.481-1.189,1.062
		c-0.093,0.586,0.246,1.062,0.85,1.062C83.559,21.311,84.049,20.835,84.144,20.249z"/>
	<path fill="none" d="M74.533,19.188c-0.42,0-0.865,0.336-0.991,0.75h1.714C75.253,19.523,74.959,19.188,74.533,19.188z"/>
	<path fill="none" d="M123.3,21.311c0.629,0,1.037-0.507,1.131-1.087c0.09-0.571-0.195-1.037-0.799-1.037
		c-0.568,0-1.014,0.495-1.098,1.031C122.444,20.78,122.688,21.311,123.3,21.311z"/>
	<path fill="none" d="M143.786,19.187c-0.568,0-1.014,0.495-1.1,1.031c-0.09,0.562,0.154,1.093,0.766,1.093
		c0.629,0,1.039-0.507,1.131-1.087C144.675,19.652,144.39,19.187,143.786,19.187z"/>
	<path fill="none" d="M87.022,33.185c-0.086-0.041-0.446-0.163-1.435-0.163H74.283v4.157h11.305c0.956,0,1.323-0.108,1.456-0.174
		c0.073-0.039,0.322-0.174,0.322-0.828v-2.154C87.366,33.367,87.117,33.234,87.022,33.185z"/>
	<path fill="none" d="M69.677,17.558h-0.201l-0.247,1.55h0.195c0.579,0,1.085-0.067,1.197-0.78
		C70.732,17.632,70.306,17.558,69.677,17.558z"/>
	<polygon fill="none" points="167.397,59.062 167.103,56.773 165.962,59.062 	"/>
	<path fill="none" d="M139.347,19.188c-0.422,0-0.865,0.336-0.992,0.75h1.715C140.065,19.523,139.772,19.188,139.347,19.188z"/>
	<path fill="none" d="M158.786,57.967c0.188-0.062,0.344-0.174,0.469-0.337c0.123-0.162,0.184-0.343,0.184-0.538
		c0-0.216-0.078-0.372-0.236-0.471c-0.09-0.062-0.291-0.093-0.598-0.093h-1.162l-0.291,1.529h0.559
		C158.241,58.058,158.599,58.027,158.786,57.967z"/>
	<path fill="none" d="M69.158,19.547l-0.264,1.66h0.513c0.574,0,1.199-0.141,1.312-0.842c0.114-0.713-0.554-0.818-1.115-0.818
		H69.158z"/>
	<path fill="none" d="M128.142,19.188c-0.418,0-0.863,0.336-0.99,0.75h1.715C128.864,19.523,128.569,19.188,128.142,19.188z"/>
	<path fill="none" d="M114.747,19.188c-0.42,0-0.863,0.336-0.99,0.75h1.715C115.47,19.523,115.175,19.188,114.747,19.188z"/>
	<path fill="#010101" d="M34.639,60.24l1.754,0.997l1.811-1.018c1.404-0.831,9.711-5.975,13.963-13.64
		c-0.348,0.119-0.751,0.208-1.199,0.274c-0.254,0.037-0.522,0.066-0.806,0.087c-0.017,0.002-0.033,0.004-0.05,0.005
		c-0.312,0.021-0.641,0.033-0.992,0.033c-0.34,0-0.712-0.013-1.094-0.03c-2.306,3.312-5.389,6.056-7.767,7.897
		c-0.962,0.653-1.967,1.289-3.038,1.89l-0.777,0.437l-0.777-0.437c-1.447-0.812-2.778-1.684-4.026-2.587
		c-2.979-2.421-6.689-6.041-8.695-10.323c-0.162,0.052-0.332,0.099-0.508,0.138c-0.058,0.012-0.121,0.015-0.18,0.025l0-0.001
		c-0.066,0.012-0.133,0.018-0.199,0.029c-0.08,0.009-0.155,0.029-0.236,0.033c-0.205,0.168-0.462,0.279-0.739,0.354
		c-0.123,0.032-0.241,0.076-0.375,0.083c-0.016,0.015-0.034,0.023-0.049,0.037l-0.045,0.033c0,0,0,0,0,0.001
		c-0.241,0.204-0.5,0.352-0.765,0.458C23.785,53.612,33.24,59.419,34.639,60.24z"/>
	<path fill="#595A5C" d="M20.035,43.438c-0.004,0.006-0.007,0.011-0.012,0.018C20.029,43.449,20.03,43.445,20.035,43.438z"/>
	<path fill="#595A5C" d="M20.183,43.212c-0.007,0.012-0.019,0.031-0.029,0.049c0.025-0.043,0.038-0.061,0.049-0.069
		c-0.002,0.002-0.005,0.002-0.008,0.007C20.19,43.202,20.188,43.204,20.183,43.212z"/>
	<path fill="#595A5C" d="M21.241,42.898C21.24,42.898,21.241,42.898,21.241,42.898c0.004-0.009,0.004-0.013,0.008-0.021l0,0
		C21.245,42.886,21.245,42.89,21.241,42.898z"/>
	<path fill="#595A5C" d="M21.125,43.056c0.006-0.006,0.007-0.011,0.012-0.017l0,0C21.131,43.045,21.13,43.05,21.125,43.056z"/>
	<path fill="#595A5C" d="M19.383,43.919c0.027-0.011,0.042-0.026,0.067-0.037c-0.023,0.01-0.045,0.021-0.07,0.03
		C19.382,43.914,19.382,43.917,19.383,43.919z"/>
	<path fill="#595A5C" d="M18.714,36.988c0.072-0.015,0.146-0.04,0.219-0.056c-0.384,0.086-0.769,0.164-1.125,0.219
		C18.099,37.107,18.403,37.054,18.714,36.988C18.714,36.988,18.714,36.988,18.714,36.988z"/>
	<path fill="#595A5C" d="M19.935,36.675c0.118-0.037,0.225-0.09,0.341-0.131c-0.271,0.096-0.545,0.183-0.822,0.256
		c0.14-0.037,0.28-0.063,0.419-0.106C19.893,36.688,19.914,36.681,19.935,36.675z"/>
	<path fill="#595A5C" d="M21.669,42.847c0.026,0,0.052-0.006,0.079-0.007c-0.003,0-0.006,0-0.008,0
		C21.716,42.841,21.692,42.847,21.669,42.847z"/>
	<rect x="21.261" y="42.799" fill="#595A5C" width="0" height="0.013"/>
	<path fill="#595A5C" d="M22.005,42.817c0-0.001,0-0.001,0-0.002c-0.011,0.002-0.021,0.003-0.032,0.005
		C21.984,42.818,21.995,42.819,22.005,42.817z"/>
	<path fill="#595A5C" d="M19.811,43.668c-0.023,0.02-0.052,0.038-0.079,0.057C19.759,43.705,19.786,43.688,19.811,43.668z"/>
	<polygon fill="#595A5C" points="21.657,42.848 21.657,42.848 21.657,42.848 	"/>
	<polygon fill="#595A5C" points="53.547,43.289 53.545,43.286 53.542,43.286 	"/>
	<path fill="#595A5C" d="M50.525,45.701c-0.012,0.001-0.023,0.002-0.036,0.004C50.502,45.703,50.514,45.702,50.525,45.701z"/>
	<path fill="#595A5C" d="M53.393,42.163c0.189,0.044,0.37,0.082,0.542,0.113C53.762,42.245,53.582,42.207,53.393,42.163z"/>
	<path fill="#595A5C" d="M53.545,43.286l0.121-0.015l0,0C53.625,43.276,53.59,43.282,53.545,43.286L53.545,43.286z"/>
	<path fill="#595A5C" d="M53.099,42.092c0.072,0.019,0.142,0.034,0.212,0.052c-0.108-0.026-0.223-0.058-0.335-0.086
		C53.016,42.067,53.06,42.082,53.099,42.092L53.099,42.092z"/>
	<path fill="#595A5C" d="M52.702,44.693c0,0.001,0,0.002,0,0.002S52.702,44.694,52.702,44.693z"/>
	<path fill="#595A5C" d="M53.175,44.535C53.175,44.534,53.176,44.534,53.175,44.535c-0.004,0-0.01,0.001-0.015,0.002
		C53.165,44.536,53.171,44.536,53.175,44.535z"/>
	<path fill="#595A5C" d="M52.681,44.764c-0.001,0.003-0.002,0.005-0.003,0.008C52.679,44.769,52.68,44.767,52.681,44.764z"/>
	<path fill="#595A5C" d="M54.581,26.512L54.581,26.512c-0.118,0.026-0.237,0.054-0.388,0.059
		C54.344,26.566,54.462,26.538,54.581,26.512z"/>
	<polygon fill="#595A5C" points="52.655,28.737 52.67,28.726 52.659,28.733 	"/>
	<path fill="#595A5C" d="M41.503,20.352c0.003-0.004,0.006-0.008,0.009-0.012C41.509,20.344,41.506,20.348,41.503,20.352z"/>
	<path fill="#595A5C" d="M52.928,28.399L52.928,28.399L52.928,28.399z"/>
	<path fill="#595A5C" d="M52.831,28.559c-0.002,0.003-0.004,0.006-0.007,0.009C52.827,28.564,52.829,28.562,52.831,28.559z"/>
	<path fill="#595A5C" d="M42.014,19.727c0-0.001,0.001-0.002,0.002-0.003C42.015,19.725,42.015,19.726,42.014,19.727z"/>
	<path fill="#595A5C" d="M52.426,28.887c-0.003,0.002-0.007,0.003-0.01,0.005C52.419,28.89,52.423,28.889,52.426,28.887z"/>
	<path fill="#010101" d="M54.299,41.121c1.182-4.814,0.956-9.66,0.518-13.022c-0.181,0.211-0.41,0.424-0.714,0.632
		c-0.035,0.104-0.085,0.206-0.141,0.308c-0.035,0.064-0.08,0.127-0.124,0.189c-0.031,0.045-0.062,0.09-0.099,0.134
		c-0.042,0.051-0.088,0.101-0.137,0.149c-0.059,0.059-0.123,0.115-0.192,0.17c-0.042,0.033-0.082,0.068-0.127,0.1
		c-0.125,0.087-0.261,0.17-0.416,0.242c-0.051,0.23-0.133,0.46-0.252,0.671c-0.093,0.166-0.208,0.311-0.335,0.443
		c0,0.003,0,0.007,0,0.01c-0.128,0.133-0.273,0.25-0.432,0.349c0.108,2.597-0.024,5.669-0.759,8.723
		c0.153,0.053,0.303,0.099,0.456,0.149c0,0.001,0,0.003-0.001,0.004c0.178,0.06,0.354,0.114,0.53,0.17c0,0.001,0,0.001,0,0.002
		l0.162,0.051l0,0c0.032,0.01,0.062,0.019,0.093,0.028c0.328,0.101,0.64,0.188,0.942,0.267c0.044,0.012,0.095,0.028,0.138,0.039
		c0-0.001,0-0.002,0-0.004c0.312,0.079,0.61,0.147,0.873,0.191l-0.001,0.003L54.299,41.121z"/>
	<path fill="#010101" d="M20.445,32.648c0.142-0.144,0.303-0.274,0.479-0.394c0.091-4.317,0.888-7.535,0.903-7.586l0.066-0.232
		l14.502-4.604l3.229,1.026c0.123-0.175,0.247-0.337,0.371-0.507c0.208-0.283,0.415-0.559,0.623-0.821
		c0.093-0.118,0.186-0.233,0.279-0.347c0.284-0.345,0.568-0.678,0.852-0.972l-5.342-1.701l-17.077,5.435l-0.502,1.708
		c-0.087,0.297-1.623,5.694-1.138,12.295c0.335-0.052,0.635-0.111,0.918-0.173c0,0.001,0,0.002,0,0.003
		c0.041-0.009,0.074-0.02,0.114-0.028c0.162-0.037,0.315-0.075,0.46-0.114c0.057-0.015,0.116-0.03,0.17-0.046
		c0.189-0.054,0.368-0.109,0.528-0.166c-0.271-0.814-0.204-1.627,0.194-2.299C20.178,32.952,20.304,32.795,20.445,32.648z"/>
	<polygon fill="#FFFFFF" points="53.542,43.286 53.545,43.286 53.545,43.286 	"/>
	
		<line fill="none" stroke="#821427" stroke-width="0" stroke-linecap="round" stroke-linejoin="round" x1="20.937" y1="34.282" x2="20.937" y2="34.284"/>
	<path fill="#821427" d="M36.312,54.697l0.065,0.037l0.066,0.037l0.097,0.055l0.097-0.055l0.063-0.037l0.071-0.04
		c0.378-0.222,5.565-3.312,9.139-8.003l-0.198-0.104c-2.482-1.476-3.57-1.637-3.885-1.646c-0.45,0.216-0.952,0.233-1.097,0.233
		c-0.499,0-0.978-0.138-1.394-0.397c-0.247-0.11-1.546-0.642-3.899-0.774h-0.002c-0.169,0-0.549-0.021-1.069-0.167
		c-4.481,0.509-7.479,2.491-7.479,2.491C30.466,51.234,35.928,54.473,36.312,54.697z"/>
	<path fill="#821427" d="M71.135,18.327c0.15-0.939-0.503-1.245-1.341-1.245h-0.756l-0.733,4.601h1.066
		c0.91,0,1.706-0.366,1.854-1.28c0.086-0.551-0.157-1.045-0.687-1.179C70.885,19.016,71.075,18.699,71.135,18.327z M70.718,20.365
		c-0.112,0.701-0.737,0.842-1.312,0.842h-0.513l0.264-1.66h0.445C70.165,19.547,70.833,19.652,70.718,20.365z M70.622,18.327
		c-0.112,0.713-0.618,0.78-1.197,0.78h-0.195l0.247-1.55h0.201C70.306,17.558,70.732,17.632,70.622,18.327z"/>
	<path fill="#821427" d="M74.599,18.736c-0.896,0-1.503,0.701-1.64,1.549c-0.13,0.824,0.315,1.477,1.169,1.477
		c0.586,0,1.096-0.293,1.452-0.805l-0.377-0.239c-0.244,0.343-0.552,0.593-0.967,0.593c-0.556,0-0.865-0.428-0.788-0.957h2.254
		C75.885,19.498,75.52,18.736,74.599,18.736z M73.542,19.938c0.126-0.414,0.571-0.75,0.991-0.75c0.427,0,0.721,0.336,0.723,0.75
		H73.542z"/>
	<polygon fill="#821427" points="77.597,23.294 80.428,18.815 79.873,18.815 78.617,20.871 77.932,18.815 77.364,18.815 
		78.268,21.414 77.041,23.294 	"/>
	<path fill="#821427" d="M84.63,20.255c0.135-0.842-0.422-1.519-1.264-1.519c-0.843,0-1.616,0.677-1.75,1.519
		c-0.135,0.843,0.431,1.508,1.266,1.508C83.72,21.763,84.496,21.098,84.63,20.255z M82.105,20.249
		c0.094-0.58,0.584-1.062,1.189-1.062c0.604,0,0.942,0.481,0.85,1.062c-0.095,0.586-0.585,1.062-1.189,1.062
		C82.351,21.311,82.012,20.835,82.105,20.249z"/>
	<path fill="#821427" d="M86.755,18.815l-0.459,2.867h0.489l0.217-1.36c0.081-0.514,0.224-1.136,0.895-1.136
		c0.567,0,0.538,0.415,0.464,0.878l-0.258,1.618h0.488l0.271-1.702c0.108-0.672,0.017-1.244-0.776-1.244
		c-0.354,0-0.641,0.151-0.887,0.427h-0.011l0.056-0.348H86.755z"/>
	<path fill="#821427" d="M93.359,21.683l0.804-5.034h-0.488l-0.412,2.575h-0.011c-0.185-0.306-0.521-0.487-0.904-0.487
		c-0.862,0-1.492,0.7-1.622,1.52c-0.127,0.792,0.29,1.506,1.132,1.506c0.392,0,0.778-0.164,1.064-0.476h0.013l-0.062,0.396H93.359z
		 M91.999,21.311c-0.611,0-0.856-0.53-0.767-1.093c0.085-0.536,0.53-1.031,1.1-1.031c0.604,0,0.888,0.466,0.797,1.037
		C93.038,20.804,92.626,21.311,91.999,21.311z"/>
	<polygon fill="#821427" points="99.099,21.684 99.485,19.267 99.997,19.267 100.069,18.815 99.558,18.815 99.722,17.784 
		99.233,17.784 99.069,18.815 98.771,18.815 98.696,19.267 98.997,19.267 98.61,21.684 	"/>
	<path fill="#821427" d="M102.077,16.648l-0.805,5.035h0.49l0.215-1.362c0.082-0.513,0.225-1.135,0.896-1.135
		c0.566,0,0.537,0.416,0.463,0.879l-0.258,1.618h0.49l0.27-1.703c0.107-0.672,0.016-1.245-0.777-1.245
		c-0.354,0-0.641,0.152-0.887,0.428l-0.008-0.013l0.398-2.502H102.077z"/>
	<path fill="#821427" d="M107.323,18.736c-0.898,0-1.502,0.701-1.639,1.549c-0.131,0.824,0.314,1.477,1.168,1.477
		c0.586,0,1.096-0.293,1.451-0.805l-0.375-0.239c-0.244,0.343-0.553,0.593-0.967,0.593c-0.555,0-0.865-0.428-0.789-0.957h2.252
		C108.612,19.498,108.245,18.736,107.323,18.736z M106.265,19.938c0.127-0.414,0.572-0.75,0.992-0.75
		c0.428,0,0.721,0.336,0.721,0.75H106.265z"/>
	<path fill="#821427" d="M114.815,18.736c-0.898,0-1.504,0.701-1.641,1.549c-0.131,0.824,0.314,1.477,1.17,1.477
		c0.586,0,1.096-0.293,1.451-0.805l-0.377-0.239c-0.244,0.343-0.553,0.593-0.967,0.593c-0.555,0-0.865-0.428-0.787-0.957h2.252
		C116.103,19.498,115.735,18.736,114.815,18.736z M113.757,19.938c0.127-0.414,0.57-0.75,0.99-0.75c0.428,0,0.723,0.336,0.725,0.75
		H113.757z"/>
	<polygon fill="#821427" points="117.751,21.684 118.853,20.518 119.577,21.684 120.167,21.684 119.22,20.158 120.485,18.815 
		119.876,18.815 118.968,19.791 118.372,18.815 117.776,18.815 118.604,20.158 117.14,21.684 	"/>
	<path fill="#821427" d="M122.294,18.814l-0.715,4.479h0.486l0.324-2.014h0.01c0.184,0.312,0.516,0.481,0.906,0.481
		c0.861,0,1.49-0.688,1.619-1.506c0.127-0.794-0.287-1.52-1.131-1.52c-0.396,0-0.775,0.171-1.064,0.487h-0.014l0.066-0.409H122.294z
		 M123.632,19.187c0.604,0,0.889,0.466,0.799,1.037c-0.094,0.58-0.502,1.087-1.131,1.087c-0.611,0-0.855-0.53-0.766-1.093
		C122.618,19.682,123.063,19.187,123.632,19.187z"/>
	<path fill="#821427" d="M128.21,18.736c-0.898,0-1.504,0.701-1.641,1.549c-0.129,0.824,0.314,1.477,1.168,1.477
		c0.588,0,1.098-0.293,1.453-0.805l-0.377-0.239c-0.244,0.343-0.553,0.593-0.967,0.593c-0.555,0-0.865-0.428-0.787-0.957h2.252
		C129.497,19.498,129.13,18.736,128.21,18.736z M127.151,19.938c0.127-0.414,0.572-0.75,0.99-0.75c0.428,0,0.723,0.336,0.725,0.75
		H127.151z"/>
	<path fill="#821427" d="M132.618,19.188c0.383,0,0.633,0.195,0.814,0.481h0.012l0.104-0.646c-0.229-0.184-0.527-0.286-0.84-0.286
		c-0.842,0-1.637,0.659-1.773,1.513c-0.137,0.867,0.418,1.513,1.285,1.513c0.342,0,0.645-0.104,0.955-0.293l0.104-0.651h-0.01
		c-0.289,0.31-0.605,0.494-1.012,0.494c-0.602,0-0.912-0.494-0.82-1.062C131.526,19.675,132.026,19.188,132.618,19.188z"/>
	<polygon fill="#821427" points="135.632,21.684 136.019,19.267 136.532,19.267 136.603,18.815 136.089,18.815 136.255,17.784 
		135.767,17.784 135.603,18.815 135.304,18.815 135.231,19.267 135.53,19.267 135.146,21.684 	"/>
	<path fill="#821427" d="M139.413,18.736c-0.898,0-1.504,0.701-1.641,1.549c-0.131,0.824,0.314,1.477,1.168,1.477
		c0.588,0,1.098-0.293,1.453-0.805l-0.377-0.239c-0.244,0.343-0.551,0.593-0.967,0.593c-0.555,0-0.865-0.428-0.787-0.957h2.252
		C140.7,19.498,140.335,18.736,139.413,18.736z M138.354,19.938c0.127-0.414,0.57-0.75,0.992-0.75c0.426,0,0.719,0.336,0.723,0.75
		H138.354z"/>
	<path fill="#821427" d="M144.813,21.683l0.805-5.034h-0.488l-0.41,2.575h-0.014c-0.184-0.306-0.52-0.487-0.904-0.487
		c-0.861,0-1.49,0.7-1.621,1.52c-0.127,0.792,0.289,1.506,1.131,1.506c0.393,0,0.779-0.164,1.064-0.476h0.014l-0.062,0.396H144.813z
		 M143.452,21.311c-0.611,0-0.855-0.53-0.766-1.093c0.086-0.536,0.531-1.031,1.1-1.031c0.604,0,0.889,0.466,0.797,1.037
		C144.491,20.804,144.081,21.311,143.452,21.311z"/>
	<path fill="#821427" d="M146.556,21.414c0.029-0.184-0.1-0.335-0.287-0.335c-0.189,0-0.367,0.151-0.395,0.335
		c-0.031,0.189,0.098,0.348,0.285,0.348S146.524,21.604,146.556,21.414z"/>
	<path fill="#010101" d="M67.871,29.021v19.916c0,0.334,0.271,0.604,0.604,0.604h5.204c0.334,0,0.604-0.27,0.604-0.604v-7.154
		h13.687c4.727,0,5.72-2.427,5.72-4.463v-4.438c0-2.036-0.993-4.465-5.72-4.465H68.474C68.141,28.417,67.871,28.688,67.871,29.021z
		 M87.366,34.022v2.154c0,0.654-0.249,0.789-0.322,0.828c-0.133,0.065-0.5,0.174-1.456,0.174H74.283v-4.157h11.305
		c0.988,0,1.349,0.122,1.435,0.163C87.117,33.234,87.366,33.367,87.366,34.022z"/>
	<path fill="#010101" d="M97.036,29.021v19.917c0,0.333,0.27,0.604,0.604,0.604h23.51c0.334,0,0.604-0.271,0.604-0.604v-3.744
		c0-0.333-0.27-0.604-0.604-0.604h-17.613v-3.731h9.895c0.332,0,0.604-0.271,0.604-0.604v-3.397c0-0.333-0.271-0.604-0.604-0.604
		h-9.895v-3.23h17.391c0.334,0,0.604-0.271,0.604-0.604v-3.396c0-0.333-0.27-0.604-0.604-0.604H97.64
		C97.306,28.417,97.036,28.688,97.036,29.021z"/>
	<path fill="#010101" d="M125.927,29.021v19.917c0,0.333,0.27,0.604,0.602,0.604h5.338c0.332,0,0.604-0.271,0.604-0.604v-7.655
		l12.699,8.163c0.098,0.062,0.211,0.096,0.326,0.096h8.512c0.27,0,0.508-0.179,0.582-0.438c0.074-0.261-0.033-0.536-0.262-0.68
		L138.214,38.4l14.262-8.866c0.227-0.143,0.334-0.419,0.26-0.679s-0.311-0.438-0.58-0.438h-7.674c-0.119,0-0.234,0.035-0.332,0.1
		L132.47,36.2v-7.179c0-0.333-0.271-0.604-0.604-0.604h-5.338C126.196,28.417,125.927,28.688,125.927,29.021z"/>
	<path fill="#821427" d="M157.138,49.541h5.295c0.332,0,0.604-0.27,0.604-0.604V29.021c0-0.333-0.271-0.604-0.604-0.604h-5.295
		c-0.334,0-0.604,0.271-0.604,0.604v19.916C156.534,49.271,156.804,49.541,157.138,49.541z"/>
	<path fill="#010101" d="M171.917,28.535c-0.104-0.077-0.227-0.118-0.355-0.118h-3.617c-0.332,0-0.604,0.271-0.604,0.604v19.917
		c0,0.333,0.271,0.604,0.604,0.604h4.764c0.334,0,0.605-0.271,0.605-0.604v-10.77c0-0.476-0.025-1.034-0.072-1.666
		c0.252,0.208,0.514,0.41,0.785,0.608l16.719,12.312c0.102,0.077,0.227,0.118,0.355,0.118h3.617c0.334,0,0.604-0.271,0.604-0.604
		V29.021c0-0.333-0.27-0.604-0.604-0.604h-4.764c-0.334,0-0.605,0.271-0.605,0.604v10.461c0,0.318,0.037,0.972,0.109,1.978
		c-0.443-0.368-0.953-0.766-1.529-1.19L171.917,28.535z"/>
	<polygon fill="#010101" points="124.149,61.267 125.206,61.267 126.323,55.577 125.269,55.577 	"/>
	<polygon fill="#010101" points="131.856,55.577 130.866,55.577 129.794,61.267 130.78,61.267 131.501,57.444 132.89,61.267 
		133.874,61.267 134.952,55.577 133.966,55.577 133.245,59.385 	"/>
	<path fill="#010101" d="M141.077,56.407c0.572,0,0.885,0.281,0.936,0.843l1.016-0.046c-0.035-0.548-0.225-0.973-0.566-1.272
		c-0.344-0.3-0.805-0.451-1.379-0.451c-0.566,0-1.016,0.151-1.344,0.454c-0.326,0.302-0.492,0.708-0.492,1.215
		c0,0.247,0.047,0.47,0.135,0.663c0.09,0.194,0.217,0.358,0.381,0.492c0.166,0.132,0.498,0.319,0.996,0.56
		c0.393,0.189,0.637,0.335,0.732,0.438c0.094,0.106,0.141,0.233,0.141,0.38c0,0.21-0.082,0.379-0.246,0.509
		s-0.408,0.194-0.734,0.194c-0.25,0-0.449-0.034-0.594-0.104c-0.146-0.067-0.252-0.161-0.312-0.28
		c-0.064-0.119-0.102-0.331-0.115-0.637l-1.006,0.059c-0.01,0.341,0.045,0.66,0.164,0.958s0.34,0.536,0.668,0.715
		c0.326,0.178,0.721,0.267,1.184,0.267c0.611,0,1.107-0.17,1.48-0.509c0.375-0.341,0.561-0.78,0.561-1.317
		c0-0.24-0.043-0.455-0.129-0.645c-0.09-0.19-0.213-0.351-0.377-0.481s-0.49-0.313-0.984-0.55c-0.375-0.182-0.623-0.325-0.748-0.435
		c-0.127-0.107-0.189-0.245-0.189-0.416c0-0.188,0.066-0.334,0.201-0.442C140.587,56.462,140.794,56.407,141.077,56.407z"/>
	<path fill="#010101" d="M148.292,58.668l0.578-3.09h-1.059l-0.559,2.995c-0.1,0.524-0.148,0.875-0.148,1.049
		c0,0.538,0.164,0.962,0.49,1.273c0.328,0.312,0.773,0.468,1.342,0.468c0.492,0,0.9-0.104,1.229-0.316
		c0.328-0.211,0.59-0.533,0.781-0.963c0.133-0.299,0.26-0.766,0.377-1.401l0.611-3.104h-1.057l-0.611,3.111
		c-0.102,0.544-0.199,0.914-0.295,1.112c-0.096,0.197-0.225,0.345-0.389,0.44c-0.16,0.096-0.359,0.144-0.592,0.144
		c-0.264,0-0.473-0.07-0.627-0.209c-0.152-0.14-0.23-0.329-0.23-0.57l0.018-0.192L148.292,58.668z"/>
	<path fill="#010101" d="M156.544,61.267l0.445-2.355h0.434c0.203,0,0.348,0.02,0.434,0.059s0.17,0.111,0.254,0.217
		c0.115,0.149,0.24,0.407,0.377,0.771c0.26,0.712,0.412,1.148,0.457,1.309h1.141c-0.275-0.769-0.525-1.373-0.752-1.812
		c-0.139-0.262-0.277-0.465-0.42-0.607c0.512-0.072,0.902-0.261,1.176-0.564c0.271-0.304,0.408-0.708,0.408-1.212
		c0-0.343-0.066-0.628-0.195-0.853c-0.131-0.225-0.299-0.389-0.506-0.489c-0.211-0.101-0.525-0.151-0.947-0.151h-2.287l-1.074,5.689
		H156.544z M157.442,56.528h1.162c0.307,0,0.508,0.031,0.598,0.093c0.158,0.099,0.236,0.255,0.236,0.471
		c0,0.195-0.061,0.376-0.184,0.538c-0.125,0.163-0.281,0.274-0.469,0.337c-0.188,0.061-0.545,0.091-1.076,0.091h-0.559
		L157.442,56.528z"/>
	<path fill="#010101" d="M163.78,61.266h1.088l0.625-1.257h2.037l0.168,1.257h1.004l-0.834-5.688h-1.172L163.78,61.266z
		 M167.397,59.062h-1.436l1.141-2.289L167.397,59.062z"/>
	<polygon fill="#010101" points="174.94,55.577 173.952,55.577 172.88,61.267 173.866,61.267 174.587,57.444 175.976,61.267 
		176.96,61.267 178.038,55.577 177.052,55.577 176.331,59.385 	"/>
	<path fill="#010101" d="M183.868,56.749c0.246-0.174,0.5-0.26,0.766-0.26c0.26,0,0.471,0.071,0.633,0.214
		c0.162,0.142,0.273,0.386,0.332,0.729l1.016-0.109c-0.064-0.592-0.273-1.048-0.627-1.364c-0.357-0.32-0.799-0.479-1.334-0.479
		c-0.473,0-0.914,0.13-1.322,0.391c-0.404,0.259-0.74,0.656-1.002,1.189c-0.262,0.534-0.395,1.151-0.395,1.853
		c0,0.817,0.18,1.43,0.543,1.838c0.359,0.409,0.848,0.612,1.465,0.612c0.551,0,1.037-0.163,1.455-0.491s0.732-0.821,0.947-1.479
		l-1.066-0.175c-0.115,0.393-0.287,0.686-0.518,0.879s-0.48,0.289-0.752,0.289c-0.285,0-0.527-0.122-0.727-0.366
		c-0.199-0.245-0.299-0.596-0.299-1.054c0-0.489,0.086-0.938,0.26-1.346C183.413,57.213,183.622,56.923,183.868,56.749z"/>
	<polygon fill="#010101" points="194.972,56.528 195.151,55.577 191.337,55.577 190.263,61.267 194.282,61.267 194.458,60.316 
		191.497,60.316 191.792,58.771 194.458,58.771 194.638,57.82 191.972,57.82 192.218,56.528 	"/>
	<polygon fill="#821427" points="147.849,17.146 148.347,17.146 148.03,19.123 148.415,19.123 148.726,17.146 149.231,17.146 
		149.284,16.802 147.901,16.802 	"/>
	<path fill="#821427" d="M151.331,17.954l0.066,1.168h0.393l-0.17-2.41l-0.99,1.477c-0.078,0.117-0.1,0.158-0.148,0.277
		c0-0.115-0.008-0.146-0.055-0.271l-0.521-1.483l-0.934,2.41h0.396l0.434-1.168l0.043-0.116c0.014-0.049,0.02-0.087,0.021-0.18
		c0.023,0.115,0.045,0.232,0.062,0.27l0.439,1.288l0.848-1.281l0.055-0.1l0.08-0.184c-0.02,0.094-0.023,0.135-0.023,0.193
		L151.331,17.954z"/>
	<path fill="#821427" d="M54.576,9.912c3.757-4.633,3.212-7.243,3.157-7.299c-3.32,9.037-13.229,15.139-13.176,15.081
		c-0.644,0.132-1.404,0.768-2.152,1.586l0,0c0,0.001-0.001,0.002-0.002,0.002c-0.129,0.143-0.258,0.29-0.387,0.441
		c-0.001,0.001-0.002,0.002-0.002,0.003c-0.141,0.165-0.279,0.334-0.416,0.507c0,0,0,0.001-0.001,0.001
		c-0.028,0.035-0.057,0.069-0.084,0.105c-0.003,0.004-0.006,0.008-0.009,0.012c-1.357,1.73-2.492,3.659-2.554,3.659
		c-2.123,2.07-3.268,3.757-3.268,3.757c-1.797,2.642-3.402,3.132-3.402,3.16c-1.171,0.407-2.069,0.926-2.096,0.926
		c-5.743-0.627-7.16,0.896-7.188,0.925c-1.577,0.228-1.996,0.926-2.059,1.506c-0.05,0.463,0.126,0.85,0.126,0.861
		c0.189,0.438,0.354,0.166,0.38,0.166c0.082-1.338,2.805,0.378,2.723,0.378c-1.877-0.3-2.641,0.356-2.668,0.328
		c-0.141,0.081-0.288,0.156-0.438,0.228c-0.249,0.117-0.518,0.205-0.784,0.299c-0.116,0.041-0.223,0.094-0.341,0.131
		c-0.021,0.006-0.042,0.013-0.062,0.019c-0.139,0.043-0.279,0.069-0.419,0.106c-0.174,0.047-0.347,0.094-0.52,0.133
		c-0.073,0.016-0.147,0.041-0.219,0.056c0,0,0,0,0,0.001c-0.312,0.064-0.615,0.118-0.906,0.162
		c-1.297,0.197-2.313,0.213-2.299,0.228c-2.368,0.083-3.404,0.926-3.43,0.951c-5.801,3.977-7.024,3.705-7.078,3.677
		c-2.668-0.164-4.331-2.425-4.331-2.425c-2.667,3.269,3.486,3.486,3.486,3.432c1.197-1.089,1.089-0.27,1.143-0.328
		c-0.38,1.636,1.688,0.11,1.688,0.165c0.219,0.544-0.87,2.179-0.979,2.179c0.926,0,3.158-1.526,3.104-1.526
		c0.055,0.926,0.108,1.908,0.055,1.963c0.653,0,2.396-1.199,2.342-1.199c-0.327,0.98,0.87,0.545,0.87,0.599
		c2.016-1.088,2.016-0.325,2.016-0.325c0.979-0.33,3.92-0.489,3.92-0.489c0.464,0.03,0.804-0.036,1.068-0.139
		c0.025-0.01,0.047-0.021,0.07-0.03c0.108-0.048,0.202-0.1,0.281-0.157c0.026-0.019,0.055-0.037,0.079-0.057
		c0.086-0.072,0.16-0.145,0.213-0.212c0.005-0.007,0.007-0.012,0.012-0.018c0.055-0.072,0.091-0.131,0.119-0.178
		c0.01-0.018,0.022-0.037,0.029-0.049c0.005-0.008,0.008-0.01,0.012-0.014c0.003-0.005,0.006-0.005,0.008-0.007
		c0.005-0.005,0.012-0.018,0.016-0.014c0.082,0.044,0.159,0.069,0.234,0.086c0.022,0.005,0.042,0.006,0.063,0.009
		c0.031,0.004,0.063,0.012,0.092,0.012c0.012,0,0.021-0.007,0.033-0.008c0.096-0.005,0.183-0.024,0.259-0.061
		c0.012-0.006,0.021-0.014,0.032-0.02c0.066-0.036,0.123-0.078,0.171-0.125c0.006-0.006,0.016-0.01,0.022-0.016
		c0.005-0.006,0.007-0.011,0.012-0.017l0,0c0.047-0.051,0.082-0.099,0.104-0.141c0,0,0,0,0,0c0.004-0.009,0.004-0.013,0.008-0.021
		l0,0c0.014-0.033,0.018-0.055,0.011-0.066l0,0c-0.001-0.003,0.004-0.012,0.002-0.013l0,0c0.012,0.003,0.025,0.002,0.038,0.005
		c0.102,0.024,0.208,0.037,0.318,0.039c0.013,0,0.026,0.005,0.039,0.005h0l0,0h0c0.004,0,0.008-0.001,0.012-0.001
		c0.023,0,0.047-0.006,0.07-0.007c0.002,0,0.005,0,0.008,0c0.075-0.004,0.149-0.009,0.225-0.02c0.01-0.002,0.021-0.003,0.032-0.005
		c0.001,0,0.003-0.001,0.005-0.001c0.039-0.006,0.076-0.01,0.114-0.018c0.532-0.102,1.001-0.326,1.036-0.326
		c1.306,0.707,1.851-0.109,1.912-0.051c1.099,0.334,1.354-0.222,1.354-0.17c0.762,0.436,1.688,0.111,1.768,0.064
		c1.06,0.174,0.901-0.064,0.954-0.17c0.818,0.27,1.31-0.109,1.252-0.22c1.254,0.22,1.362-0.218,1.362-0.218l1.145,0.056
		c1.47,1.088,2.558,1.033,2.558,1.033c2.997,0.163,4.466,0.927,4.466,0.927c0.708,0.487,1.523,0.107,1.471,0.055
		c1.578-0.383,5.118,1.907,5.063,1.849c0.907,0.089,1.671,0.131,2.333,0.142l0,0c0.107,0.002,0.221,0.006,0.323,0.006
		c0.067,0,0.118-0.005,0.182-0.005c0.173-0.002,0.334-0.007,0.49-0.014c0.107-0.005,0.218-0.009,0.317-0.016
		c0.057-0.004,0.118-0.007,0.172-0.012c0.001,0,0.003,0,0.004,0l0,0c0.074-0.007,0.135-0.016,0.204-0.022
		c0.013-0.002,0.024-0.003,0.036-0.004c0.024-0.003,0.048-0.006,0.071-0.008c0.056-0.007,0.119-0.012,0.172-0.02
		c1.453-0.198,1.814-0.649,1.909-0.902c0.001-0.003,0.002-0.005,0.003-0.008c0.009-0.025,0.017-0.048,0.021-0.068
		c0,0,0-0.001,0-0.002c0.016-0.067,0.013-0.109,0.022-0.101c0.173-0.006,0.313-0.026,0.436-0.056
		c0.005-0.001,0.011-0.002,0.016-0.003c1.009-0.249,0.426-1.204,0.372-1.245c-0.002-0.002-0.006-0.005-0.006-0.003
		c0.001,0,0.002,0,0.003,0c0.045-0.004,0.08-0.01,0.122-0.015c1.708-0.189,0.472-0.965,0.42-0.965
		c-0.048-0.008-0.103-0.021-0.152-0.03c-0.172-0.031-0.353-0.069-0.542-0.113c-0.027-0.007-0.054-0.014-0.081-0.02
		c-0.071-0.018-0.14-0.033-0.212-0.052l0,0c-0.039-0.01-0.083-0.024-0.123-0.034c-0.314-0.082-0.64-0.173-0.978-0.276
		c-0.007-0.002-0.014-0.004-0.021-0.006v-0.001c-0.019-0.006-0.038-0.011-0.056-0.017c-0.367-0.113-0.743-0.235-1.118-0.363
		c-2.251-0.769-4.451-1.703-4.451-1.703l-0.325-0.651l-0.654-1.036c0.382,0,0.218-1.251,0.164-1.196
		c0.926-0.219,1.034-0.819,1.034-0.872c-0.763-1.088-0.272-1.035-0.325-1.088c0.598,0.436,0.814-0.273,0.761-0.327
		c1.035,0.162,1.142-1.092,1.142-1.143c1.036,0.382,1.145-0.983,1.145-1.092c0.709,0.22,1.416-1.63,1.306-1.63
		c0.894-0.075,1.096-0.704,1.12-1.133c0,0.001,0,0.001,0,0.002c0-0.001,0-0.002,0-0.004c0.011-0.196-0.013-0.354-0.03-0.389
		c0.315-0.059,0.544-0.146,0.727-0.241c0.003-0.002,0.007-0.003,0.01-0.005c0.09-0.048,0.165-0.098,0.229-0.149
		c0.001-0.002,0.003-0.003,0.004-0.004c0.003-0.003,0.008-0.006,0.011-0.008c0.062-0.053,0.114-0.104,0.154-0.158
		c0.002-0.003,0.005-0.006,0.007-0.009c0.041-0.055,0.074-0.106,0.097-0.159l0,0c0.094-0.211,0.068-0.389,0.068-0.412
		c0.268-0.141,0.463-0.278,0.626-0.413c0.042-0.035,0.095-0.071,0.132-0.105l0,0c0.354-0.334,0.431-0.622,0.443-0.777
		c0.006-0.077-0.004-0.121-0.004-0.121c0.151-0.005,0.27-0.032,0.388-0.06c1.118-0.261,0.86-1.41,0.811-1.41
		c1.198,0,0.873-1.362,0.873-1.417c1.523-0.432,0.98-1.413,0.98-1.413c1.796-0.164,1.252-2.07,1.197-2.07
		c1.034-0.11,0.707-0.979,0.707-0.979c0.924-0.11,0.924-0.87,0.872-0.87c2.777,0.271,2.177-1.636,2.177-1.636
		c1.852-1.306,0.871-1.416,0.871-1.361c2.123-1.634,1.579-1.795,1.524-1.795c-1.033,0,0-0.708-0.053-0.708
		c2.123-1.253,1.415-1.363,1.415-1.418c-1.308,0.382-0.926-0.106-0.926-0.106c4.735-2.561,3.375-2.45,3.32-2.45
		c-6.643,2.341-7.569,2.502-7.513,2.341c9.202-4.899,8.059-5.5,8.059-5.446c-1.907,0.162-9.42,4.739-9.474,4.739
		c8.602-5.936,7.676-7.459,7.676-7.459c-1.361,1.197-8.875,6.589-8.875,6.64c7.298-6.369,6.37-9.146,6.37-9.092
		c-3.265,5.009-7.839,8.494-7.786,8.439C62.036,3.702,61.272,0,61.329,0C57.298,7.786,54.522,9.912,54.576,9.912z"/>
	<polygon fill="#010101" points="197.636,31.453 198.046,28.847 198.714,28.847 198.784,28.393 196.96,28.393 196.89,28.847 
		197.546,28.847 197.13,31.453 	"/>
	<path fill="#010101" d="M200.558,30.222c-0.102,0.153-0.131,0.209-0.195,0.365c0-0.152-0.012-0.191-0.072-0.356l-0.686-1.956
		l-1.232,3.179h0.523l0.57-1.541l0.057-0.153c0.018-0.063,0.025-0.114,0.029-0.237c0.029,0.152,0.061,0.306,0.082,0.356l0.58,1.697
		l1.117-1.688l0.07-0.131c0.043-0.09,0.064-0.128,0.109-0.243c-0.027,0.124-0.033,0.179-0.033,0.255l0.006,0.145l0.088,1.541h0.52
		l-0.225-3.179L200.558,30.222z"/>
</g>
</svg>
