<?xml version="1.0" encoding="utf-8"?>
<!-- Generator: Adobe Illustrator 16.0.4, SVG Export Plug-In . SVG Version: 6.00 Build 0)  -->
<!DOCTYPE svg PUBLIC "-//W3C//DTD SVG 1.1//EN" "http://www.w3.org/Graphics/SVG/1.1/DTD/svg11.dtd">
<svg version="1.1" id="Layer_1" xmlns="http://www.w3.org/2000/svg" xmlns:xlink="http://www.w3.org/1999/xlink" x="0px" y="0px"
	 width="202.089px" height="61.364px" viewBox="0 0 202.089 61.364" enable-background="new 0 0 202.089 61.364"
	 xml:space="preserve">
<path fill="#FFFFFF" d="M34.639,60.24l1.754,0.997l1.811-1.019c1.404-0.83,9.711-5.975,13.963-13.64
	c-0.348,0.119-0.751,0.208-1.199,0.274c-0.254,0.037-0.522,0.065-0.806,0.087c-0.017,0.002-0.033,0.004-0.05,0.005
	c-0.312,0.021-0.641,0.033-0.992,0.033c-0.34,0-0.712-0.014-1.094-0.03c-2.306,3.312-5.389,6.056-7.767,7.897
	c-0.962,0.652-1.967,1.288-3.038,1.89l-0.777,0.437l-0.777-0.437c-1.447-0.812-2.778-1.685-4.026-2.587
	c-2.979-2.421-6.689-6.041-8.695-10.323c-0.162,0.052-0.332,0.099-0.508,0.138c-0.058,0.013-0.121,0.016-0.18,0.025v-0.001
	c-0.066,0.012-0.133,0.018-0.199,0.029c-0.08,0.009-0.155,0.028-0.236,0.032c-0.205,0.168-0.462,0.279-0.739,0.354
	c-0.123,0.032-0.241,0.076-0.375,0.083c-0.016,0.015-0.034,0.022-0.049,0.037l-0.045,0.033c0,0,0,0,0,0.001
	c-0.241,0.203-0.5,0.352-0.765,0.458C23.785,53.612,33.24,59.419,34.639,60.24z M20.035,43.438
	c-0.004,0.006-0.007,0.011-0.012,0.018C20.028,43.449,20.029,43.445,20.035,43.438z M20.183,43.212
	c-0.007,0.013-0.019,0.031-0.029,0.049c0.025-0.043,0.038-0.061,0.049-0.068c-0.002,0.002-0.005,0.002-0.008,0.007
	C20.189,43.202,20.188,43.204,20.183,43.212z M21.241,42.898C21.24,42.898,21.241,42.898,21.241,42.898
	c0.004-0.009,0.004-0.014,0.008-0.021l0,0C21.245,42.886,21.245,42.891,21.241,42.898z M21.125,43.057
	c0.006-0.007,0.007-0.012,0.012-0.018l0,0C21.13,43.045,21.129,43.05,21.125,43.057z M19.382,43.919
	c0.027-0.011,0.042-0.025,0.067-0.037c-0.023,0.011-0.045,0.021-0.07,0.03C19.381,43.914,19.381,43.917,19.382,43.919z
	 M18.713,36.988c0.072-0.015,0.146-0.04,0.219-0.056c-0.384,0.086-0.769,0.164-1.125,0.219
	C18.099,37.107,18.402,37.055,18.713,36.988L18.713,36.988z M19.935,36.675c0.118-0.036,0.225-0.09,0.341-0.131
	c-0.271,0.097-0.545,0.184-0.822,0.256c0.14-0.036,0.28-0.062,0.419-0.105C19.893,36.688,19.914,36.682,19.935,36.675z
	 M21.668,42.848c0.026,0,0.052-0.007,0.079-0.008c-0.003,0-0.006,0-0.008,0C21.715,42.841,21.691,42.848,21.668,42.848z
	 M21.261,42.799L21.261,42.799v0.014l0,0V42.799z M22.004,42.817c0-0.001,0-0.001,0-0.002c-0.011,0.002-0.021,0.003-0.032,0.005
	C21.983,42.818,21.995,42.819,22.004,42.817z M19.811,43.668c-0.023,0.021-0.052,0.038-0.079,0.058
	C19.758,43.705,19.786,43.688,19.811,43.668z M21.657,42.849L21.657,42.849L21.657,42.849z M53.546,43.289l-0.002-0.003h-0.003
	L53.546,43.289z M50.524,45.701c-0.012,0.001-0.023,0.002-0.036,0.004C50.501,45.703,50.514,45.702,50.524,45.701z M53.393,42.163
	c0.189,0.044,0.37,0.082,0.542,0.113C53.762,42.245,53.582,42.207,53.393,42.163z M53.544,43.286l0.121-0.015l0,0
	C53.625,43.276,53.589,43.282,53.544,43.286L53.544,43.286z M53.099,42.092c0.072,0.02,0.142,0.034,0.212,0.053
	c-0.108-0.026-0.223-0.059-0.335-0.086C53.016,42.067,53.06,42.082,53.099,42.092L53.099,42.092z M52.702,44.693
	c0,0.001,0,0.002,0,0.002S52.702,44.694,52.702,44.693z M53.174,44.535C53.174,44.534,53.175,44.534,53.174,44.535
	c-0.004,0-0.01,0.001-0.015,0.002C53.165,44.536,53.17,44.536,53.174,44.535z M52.681,44.765c-0.001,0.003-0.002,0.005-0.003,0.008
	C52.679,44.77,52.68,44.768,52.681,44.765z M54.581,26.513L54.581,26.513c-0.118,0.025-0.237,0.054-0.388,0.059
	C54.343,26.566,54.461,26.538,54.581,26.513z M52.654,28.737l0.015-0.011l-0.011,0.007L52.654,28.737z M41.502,20.353
	c0.003-0.004,0.006-0.009,0.009-0.013C41.508,20.344,41.505,20.349,41.502,20.353z M52.928,28.399L52.928,28.399L52.928,28.399z
	 M52.824,28.568c0.003-0.003,0.005-0.006,0.007-0.009C52.829,28.562,52.827,28.564,52.824,28.568z M42.014,19.728
	c0-0.001,0.001-0.002,0.002-0.003C42.015,19.726,42.015,19.727,42.014,19.728z M52.425,28.888c-0.003,0.002-0.007,0.003-0.01,0.005
	C52.418,28.891,52.422,28.89,52.425,28.888z M54.298,41.121c1.182-4.813,0.956-9.66,0.518-13.021
	c-0.181,0.211-0.41,0.424-0.714,0.632c-0.035,0.104-0.085,0.206-0.141,0.308c-0.035,0.064-0.08,0.127-0.124,0.189
	c-0.031,0.045-0.062,0.09-0.099,0.134c-0.042,0.051-0.088,0.101-0.137,0.148c-0.059,0.06-0.123,0.115-0.192,0.171
	c-0.042,0.032-0.082,0.067-0.127,0.1c-0.125,0.087-0.261,0.17-0.416,0.242c-0.051,0.229-0.133,0.46-0.252,0.671
	c-0.093,0.166-0.208,0.311-0.335,0.443c0,0.003,0,0.007,0,0.01c-0.128,0.133-0.273,0.25-0.432,0.349
	c0.108,2.597-0.024,5.669-0.759,8.723c0.153,0.054,0.303,0.1,0.456,0.149c0,0.001,0,0.003-0.001,0.004
	c0.178,0.061,0.354,0.114,0.53,0.17c0,0.001,0,0.001,0,0.002l0.162,0.051l0,0c0.032,0.011,0.062,0.02,0.093,0.028
	c0.328,0.102,0.64,0.188,0.942,0.268c0.044,0.012,0.095,0.027,0.138,0.039c0-0.002,0-0.003,0-0.005
	c0.312,0.079,0.61,0.147,0.873,0.191l-0.001,0.003L54.298,41.121z M20.444,32.648c0.142-0.145,0.303-0.274,0.479-0.395
	c0.091-4.316,0.888-7.535,0.903-7.586l0.066-0.231l14.502-4.604l3.229,1.026c0.123-0.175,0.247-0.337,0.371-0.507
	c0.208-0.283,0.415-0.56,0.623-0.821c0.093-0.118,0.186-0.233,0.279-0.347c0.284-0.346,0.568-0.679,0.852-0.973l-5.342-1.701
	L19.33,21.945l-0.502,1.708c-0.087,0.297-1.623,5.694-1.138,12.295c0.335-0.052,0.635-0.111,0.918-0.173c0,0.001,0,0.002,0,0.003
	c0.041-0.009,0.074-0.021,0.114-0.028c0.162-0.037,0.315-0.075,0.46-0.114c0.057-0.015,0.116-0.029,0.17-0.046
	c0.189-0.054,0.368-0.108,0.528-0.166c-0.271-0.813-0.204-1.627,0.194-2.299C20.178,32.952,20.304,32.795,20.444,32.648z
	 M53.542,43.286h0.003l0,0H53.542z M20.937,34.282v0.002 M36.312,54.697l0.065,0.037l0.066,0.037l0.097,0.055l0.097-0.055
	l0.063-0.037l0.071-0.04c0.378-0.222,5.565-3.312,9.139-8.003l-0.198-0.104c-2.482-1.476-3.57-1.637-3.885-1.646
	c-0.45,0.216-0.952,0.232-1.097,0.232c-0.499,0-0.978-0.138-1.394-0.396c-0.247-0.11-1.546-0.643-3.899-0.774h-0.002
	c-0.169,0-0.549-0.021-1.069-0.167c-4.481,0.509-7.479,2.491-7.479,2.491C30.465,51.234,35.928,54.474,36.312,54.697z
	 M71.134,18.327c0.15-0.938-0.503-1.245-1.341-1.245h-0.756l-0.733,4.602h1.066c0.91,0,1.706-0.366,1.854-1.28
	c0.086-0.551-0.157-1.045-0.687-1.179C70.884,19.017,71.075,18.699,71.134,18.327z M70.717,20.365
	c-0.112,0.701-0.737,0.842-1.312,0.842h-0.513l0.264-1.66h0.445C70.165,19.547,70.833,19.652,70.717,20.365z M70.622,18.327
	c-0.112,0.713-0.618,0.78-1.197,0.78h-0.195l0.247-1.55h0.201C70.306,17.559,70.731,17.632,70.622,18.327z M74.599,18.736
	c-0.896,0-1.503,0.701-1.64,1.549c-0.13,0.824,0.315,1.478,1.169,1.478c0.586,0,1.096-0.294,1.452-0.806l-0.377-0.239
	c-0.244,0.344-0.552,0.594-0.967,0.594c-0.556,0-0.865-0.429-0.788-0.957h2.254C75.884,19.498,75.52,18.736,74.599,18.736z
	 M73.542,19.938c0.126-0.414,0.571-0.75,0.991-0.75c0.427,0,0.721,0.336,0.723,0.75H73.542z M77.597,23.294l2.831-4.479h-0.555
	l-1.256,2.056l-0.685-2.056h-0.568l0.904,2.599l-1.227,1.88H77.597z M84.629,20.255c0.135-0.842-0.422-1.519-1.264-1.519
	c-0.843,0-1.616,0.677-1.75,1.519c-0.135,0.844,0.431,1.509,1.266,1.509C83.72,21.764,84.496,21.099,84.629,20.255z M82.104,20.249
	c0.094-0.58,0.584-1.062,1.189-1.062c0.604,0,0.942,0.48,0.85,1.062c-0.095,0.586-0.585,1.062-1.189,1.062
	S82.012,20.835,82.104,20.249z M86.754,18.815l-0.459,2.867h0.489l0.217-1.36c0.081-0.514,0.224-1.136,0.895-1.136
	c0.567,0,0.538,0.415,0.464,0.878l-0.258,1.618h0.488l0.271-1.702c0.108-0.672,0.017-1.244-0.776-1.244
	c-0.354,0-0.641,0.151-0.887,0.427h-0.011l0.056-0.348H86.754z M93.358,21.684l0.804-5.034h-0.488l-0.412,2.575h-0.011
	c-0.185-0.307-0.521-0.487-0.904-0.487c-0.862,0-1.492,0.7-1.622,1.52c-0.127,0.792,0.29,1.507,1.132,1.507
	c0.392,0,0.778-0.164,1.064-0.477h0.013l-0.062,0.396H93.358z M91.999,21.312c-0.611,0-0.856-0.53-0.767-1.094
	c0.085-0.535,0.53-1.03,1.1-1.03c0.604,0,0.888,0.466,0.797,1.037C93.038,20.805,92.625,21.312,91.999,21.312z M99.099,21.685
	l0.386-2.417h0.512l0.072-0.452h-0.511l0.164-1.031h-0.489l-0.164,1.031h-0.298l-0.075,0.452h0.301l-0.387,2.417H99.099z
	 M102.076,16.648l-0.805,5.035h0.49l0.215-1.362c0.082-0.513,0.225-1.135,0.896-1.135c0.566,0,0.537,0.416,0.463,0.879l-0.258,1.618
	h0.49l0.27-1.703c0.107-0.672,0.016-1.245-0.777-1.245c-0.354,0-0.641,0.152-0.887,0.428l-0.008-0.013l0.398-2.502H102.076z
	 M107.322,18.736c-0.898,0-1.502,0.701-1.639,1.549c-0.131,0.824,0.314,1.478,1.168,1.478c0.586,0,1.096-0.294,1.451-0.806
	l-0.375-0.239c-0.244,0.344-0.553,0.594-0.967,0.594c-0.555,0-0.865-0.429-0.789-0.957h2.252
	C108.611,19.498,108.244,18.736,107.322,18.736z M106.265,19.938c0.127-0.414,0.57-0.75,0.99-0.75c0.43,0,0.723,0.336,0.723,0.75
	H106.265z M114.814,18.736c-0.898,0-1.504,0.701-1.641,1.549c-0.131,0.824,0.314,1.478,1.17,1.478c0.586,0,1.096-0.294,1.451-0.806
	l-0.377-0.239c-0.244,0.344-0.553,0.594-0.967,0.594c-0.555,0-0.865-0.429-0.787-0.957h2.252
	C116.103,19.498,115.734,18.736,114.814,18.736z M113.755,19.938c0.127-0.414,0.57-0.75,0.99-0.75c0.428,0,0.725,0.336,0.727,0.75
	H113.755z M117.75,21.685l1.104-1.166l0.723,1.166h0.59l-0.945-1.526l1.264-1.343h-0.609l-0.908,0.976l-0.596-0.976h-0.596
	l0.828,1.343l-1.463,1.526H117.75z M122.292,18.814l-0.715,4.479h0.486l0.324-2.014h0.01c0.184,0.312,0.516,0.48,0.906,0.48
	c0.861,0,1.49-0.688,1.619-1.506c0.127-0.794-0.287-1.52-1.131-1.52c-0.396,0-0.775,0.171-1.064,0.487h-0.014l0.066-0.409h-0.488
	V18.814z M123.63,19.188c0.605,0,0.891,0.466,0.801,1.037c-0.096,0.58-0.502,1.087-1.133,1.087c-0.609,0-0.854-0.53-0.766-1.094
	C122.617,19.683,123.062,19.188,123.63,19.188z M128.208,18.736c-0.896,0-1.504,0.701-1.641,1.549
	c-0.129,0.824,0.314,1.478,1.168,1.478c0.588,0,1.098-0.294,1.453-0.806l-0.377-0.239c-0.244,0.344-0.553,0.594-0.967,0.594
	c-0.555,0-0.865-0.429-0.787-0.957h2.252C129.496,19.498,129.128,18.736,128.208,18.736z M127.15,19.938
	c0.127-0.414,0.572-0.75,0.99-0.75c0.428,0,0.723,0.336,0.725,0.75H127.15z M132.617,19.188c0.383,0,0.633,0.194,0.814,0.48h0.012
	l0.104-0.646c-0.229-0.185-0.525-0.286-0.84-0.286c-0.842,0-1.637,0.659-1.771,1.513c-0.139,0.867,0.418,1.514,1.285,1.514
	c0.342,0,0.645-0.104,0.953-0.293l0.105-0.651h-0.01c-0.289,0.31-0.605,0.494-1.014,0.494c-0.602,0-0.91-0.494-0.818-1.062
	C131.525,19.675,132.025,19.188,132.617,19.188z M135.63,21.685l0.389-2.417h0.512l0.072-0.452h-0.516l0.166-1.031h-0.486
	l-0.164,1.031h-0.299l-0.074,0.452h0.299l-0.383,2.417H135.63z M139.412,18.736c-0.896,0-1.504,0.701-1.641,1.549
	c-0.131,0.824,0.314,1.478,1.168,1.478c0.588,0,1.098-0.294,1.453-0.806l-0.377-0.239c-0.244,0.344-0.551,0.594-0.967,0.594
	c-0.555,0-0.865-0.429-0.787-0.957h2.252C140.699,19.498,140.333,18.736,139.412,18.736z M138.353,19.938
	c0.127-0.414,0.57-0.75,0.992-0.75c0.426,0,0.719,0.336,0.723,0.75H138.353z M144.812,21.684l0.805-5.034h-0.488l-0.408,2.575
	h-0.016c-0.184-0.307-0.52-0.487-0.904-0.487c-0.859,0-1.488,0.7-1.619,1.52c-0.127,0.792,0.287,1.507,1.131,1.507
	c0.393,0,0.777-0.164,1.062-0.477h0.016l-0.062,0.396H144.812z M143.451,21.312c-0.611,0-0.854-0.53-0.766-1.094
	c0.086-0.535,0.531-1.03,1.1-1.03c0.605,0,0.889,0.466,0.797,1.037C144.49,20.805,144.08,21.312,143.451,21.312z M146.556,21.414
	c0.027-0.184-0.102-0.335-0.287-0.335c-0.189,0-0.367,0.151-0.396,0.335c-0.031,0.189,0.1,0.349,0.285,0.349
	C146.345,21.763,146.523,21.604,146.556,21.414z M67.871,29.021v19.916c0,0.334,0.271,0.604,0.604,0.604h5.204
	c0.334,0,0.604-0.27,0.604-0.604v-7.154H87.97c4.727,0,5.72-2.427,5.72-4.463v-4.438c0-2.035-0.993-4.465-5.72-4.465H68.474
	C68.141,28.417,67.871,28.688,67.871,29.021z M87.366,34.022v2.153c0,0.654-0.249,0.789-0.322,0.828
	c-0.133,0.065-0.5,0.174-1.456,0.174H74.283v-4.156h11.305c0.988,0,1.349,0.122,1.435,0.163
	C87.117,33.234,87.366,33.367,87.366,34.022z M97.036,29.021v19.917c0,0.333,0.27,0.604,0.604,0.604h23.51
	c0.334,0,0.604-0.271,0.604-0.604v-3.744c0-0.333-0.27-0.604-0.604-0.604h-17.613v-3.73h9.895c0.332,0,0.604-0.271,0.604-0.604
	v-3.396c0-0.333-0.27-0.604-0.604-0.604h-9.895v-3.229h17.391c0.334,0,0.604-0.271,0.604-0.604v-3.396
	c0-0.333-0.27-0.604-0.604-0.604H97.64C97.306,28.417,97.036,28.688,97.036,29.021z M125.925,29.021v19.917
	c0,0.333,0.271,0.604,0.604,0.604h5.338c0.332,0,0.604-0.271,0.604-0.604v-7.655l12.699,8.163c0.098,0.062,0.211,0.096,0.326,0.096
	h8.512c0.27,0,0.508-0.179,0.582-0.438c0.074-0.262-0.033-0.536-0.262-0.681L138.212,38.4l14.264-8.866
	c0.227-0.143,0.334-0.419,0.26-0.679c-0.074-0.261-0.312-0.438-0.58-0.438h-7.674c-0.119,0-0.234,0.035-0.332,0.101L132.47,36.2
	v-7.179c0-0.333-0.271-0.604-0.605-0.604h-5.338C126.195,28.417,125.925,28.688,125.925,29.021z M157.138,49.541h5.295
	c0.332,0,0.604-0.27,0.604-0.604V29.021c0-0.333-0.271-0.604-0.604-0.604h-5.295c-0.334,0-0.605,0.271-0.605,0.604v19.916
	C156.533,49.271,156.804,49.541,157.138,49.541z M171.916,28.535c-0.104-0.077-0.227-0.118-0.354-0.118h-3.617
	c-0.332,0-0.605,0.271-0.605,0.604v19.917c0,0.333,0.271,0.604,0.605,0.604h4.764c0.334,0,0.605-0.271,0.605-0.604V38.168
	c0-0.476-0.025-1.034-0.072-1.666c0.252,0.208,0.514,0.41,0.785,0.608l16.719,12.312c0.102,0.077,0.227,0.118,0.355,0.118h3.615
	c0.334,0,0.605-0.271,0.605-0.604V29.021c0-0.333-0.271-0.604-0.605-0.604h-4.764c-0.334,0-0.604,0.271-0.604,0.604v10.461
	c0,0.317,0.037,0.972,0.107,1.978c-0.441-0.368-0.953-0.766-1.527-1.189L171.916,28.535z M124.148,61.268h1.057l1.117-5.69h-1.053
	L124.148,61.268z M131.855,55.577h-0.99l-1.072,5.69h0.986l0.721-3.823l1.391,3.823h0.982l1.078-5.69h-0.986l-0.721,3.808
	L131.855,55.577z M141.076,56.407c0.572,0,0.885,0.281,0.938,0.843l1.016-0.046c-0.035-0.548-0.225-0.973-0.566-1.271
	c-0.344-0.301-0.805-0.451-1.379-0.451c-0.566,0-1.016,0.15-1.344,0.454c-0.326,0.302-0.492,0.708-0.492,1.215
	c0,0.247,0.047,0.47,0.135,0.663c0.09,0.193,0.217,0.357,0.381,0.492c0.166,0.132,0.498,0.318,0.996,0.56
	c0.393,0.189,0.637,0.335,0.732,0.438c0.094,0.106,0.141,0.233,0.141,0.381c0,0.21-0.082,0.379-0.246,0.509
	s-0.408,0.193-0.734,0.193c-0.25,0-0.449-0.033-0.594-0.104c-0.146-0.067-0.252-0.161-0.312-0.28
	c-0.062-0.119-0.102-0.331-0.115-0.637l-1.006,0.059c-0.01,0.342,0.045,0.66,0.164,0.958c0.119,0.299,0.34,0.536,0.668,0.716
	c0.326,0.178,0.723,0.267,1.186,0.267c0.609,0,1.105-0.17,1.479-0.509c0.375-0.341,0.562-0.78,0.562-1.317
	c0-0.24-0.043-0.455-0.129-0.645c-0.092-0.19-0.215-0.352-0.377-0.481c-0.164-0.13-0.49-0.312-0.984-0.55
	c-0.375-0.182-0.623-0.325-0.748-0.436c-0.127-0.106-0.189-0.244-0.189-0.416c0-0.188,0.066-0.334,0.201-0.441
	C140.585,56.462,140.792,56.407,141.076,56.407z M148.291,58.668l0.578-3.09h-1.059l-0.559,2.995
	c-0.1,0.524-0.148,0.875-0.148,1.049c0,0.538,0.164,0.962,0.49,1.273c0.328,0.312,0.773,0.468,1.342,0.468
	c0.492,0,0.9-0.104,1.229-0.316c0.328-0.211,0.59-0.532,0.781-0.963c0.133-0.299,0.26-0.766,0.377-1.4l0.611-3.104h-1.057
	l-0.611,3.111c-0.102,0.544-0.199,0.914-0.295,1.111s-0.225,0.346-0.389,0.44c-0.16,0.096-0.359,0.144-0.592,0.144
	c-0.264,0-0.473-0.069-0.627-0.209c-0.152-0.14-0.23-0.328-0.23-0.569l0.018-0.192L148.291,58.668z M156.542,61.268l0.445-2.355
	h0.434c0.203,0,0.35,0.021,0.436,0.06c0.086,0.038,0.17,0.11,0.254,0.217c0.115,0.148,0.24,0.406,0.377,0.771
	c0.26,0.712,0.412,1.148,0.457,1.31h1.141c-0.275-0.77-0.525-1.373-0.752-1.812c-0.139-0.262-0.277-0.465-0.42-0.606
	c0.512-0.072,0.902-0.262,1.176-0.564c0.271-0.304,0.408-0.708,0.408-1.212c0-0.343-0.066-0.628-0.195-0.854
	c-0.131-0.225-0.299-0.389-0.506-0.488c-0.211-0.102-0.525-0.151-0.947-0.151h-2.287l-1.074,5.689h1.055V61.268z M157.441,56.528
	h1.162c0.307,0,0.508,0.031,0.598,0.093c0.158,0.099,0.236,0.255,0.236,0.471c0,0.195-0.061,0.376-0.184,0.538
	c-0.125,0.163-0.281,0.274-0.469,0.337c-0.188,0.062-0.545,0.092-1.076,0.092h-0.559L157.441,56.528z M163.779,61.267h1.088
	l0.625-1.258h2.037l0.168,1.258h1.004l-0.834-5.688h-1.172L163.779,61.267z M167.396,59.062h-1.436l1.141-2.289L167.396,59.062z
	 M174.939,55.577h-0.988l-1.072,5.69h0.986l0.721-3.823l1.391,3.823h0.982l1.078-5.69h-0.986l-0.721,3.808L174.939,55.577z
	 M183.867,56.749c0.246-0.174,0.5-0.26,0.766-0.26c0.262,0,0.473,0.071,0.635,0.214c0.162,0.142,0.271,0.386,0.332,0.729
	l1.016-0.109c-0.064-0.592-0.273-1.048-0.627-1.364c-0.357-0.319-0.799-0.479-1.334-0.479c-0.473,0-0.914,0.13-1.322,0.391
	c-0.404,0.259-0.74,0.656-1.002,1.189s-0.395,1.15-0.395,1.853c0,0.817,0.18,1.43,0.543,1.838c0.357,0.409,0.848,0.612,1.465,0.612
	c0.551,0,1.037-0.163,1.455-0.491s0.73-0.821,0.947-1.479l-1.066-0.176c-0.115,0.394-0.287,0.687-0.52,0.88
	c-0.23,0.192-0.479,0.288-0.752,0.288c-0.283,0-0.525-0.121-0.727-0.365c-0.199-0.245-0.299-0.597-0.299-1.055
	c0-0.488,0.086-0.938,0.26-1.346C183.412,57.213,183.621,56.923,183.867,56.749z M194.972,56.528l0.178-0.951h-3.814l-1.072,5.69
	h4.018l0.176-0.951h-2.961l0.295-1.545h2.666l0.182-0.951h-2.666l0.244-1.292H194.972z M147.849,17.146h0.498l-0.318,1.977h0.385
	l0.312-1.977h0.504l0.053-0.345H147.9L147.849,17.146z M151.33,17.954l0.066,1.168h0.393l-0.17-2.41l-0.99,1.478
	c-0.078,0.117-0.1,0.158-0.146,0.276c0-0.114-0.008-0.146-0.057-0.271l-0.52-1.483l-0.934,2.41h0.395l0.434-1.168l0.045-0.116
	c0.014-0.049,0.02-0.087,0.02-0.18c0.023,0.115,0.045,0.232,0.062,0.27l0.439,1.288l0.848-1.28l0.055-0.101l0.08-0.184
	c-0.02,0.094-0.023,0.135-0.023,0.192L151.33,17.954z M54.576,9.912c3.757-4.633,3.212-7.243,3.157-7.299
	c-3.32,9.037-13.229,15.139-13.176,15.081c-0.644,0.132-1.404,0.768-2.152,1.586l0,0c0,0.001-0.001,0.002-0.002,0.002
	c-0.129,0.143-0.258,0.29-0.387,0.441c-0.001,0.001-0.002,0.002-0.002,0.003c-0.141,0.165-0.279,0.334-0.416,0.507
	c0,0,0,0.001-0.001,0.001c-0.028,0.035-0.057,0.068-0.084,0.104c-0.003,0.004-0.006,0.009-0.009,0.013
	c-1.357,1.729-2.492,3.658-2.554,3.658c-2.123,2.07-3.268,3.758-3.268,3.758c-1.797,2.642-3.402,3.132-3.402,3.159
	c-1.171,0.407-2.069,0.927-2.096,0.927c-5.743-0.627-7.16,0.896-7.188,0.925c-1.577,0.228-1.996,0.926-2.059,1.506
	c-0.05,0.463,0.126,0.85,0.126,0.861c0.189,0.438,0.354,0.166,0.38,0.166c0.082-1.338,2.805,0.378,2.723,0.378
	c-1.877-0.3-2.641,0.355-2.668,0.328c-0.141,0.081-0.288,0.155-0.438,0.228c-0.249,0.117-0.518,0.205-0.784,0.299
	c-0.116,0.041-0.223,0.095-0.341,0.131c-0.021,0.007-0.042,0.014-0.062,0.02c-0.139,0.043-0.279,0.069-0.419,0.105
	c-0.174,0.048-0.347,0.095-0.52,0.134c-0.073,0.016-0.147,0.041-0.219,0.056c0,0,0,0,0,0.001c-0.312,0.064-0.615,0.118-0.906,0.162
	c-1.297,0.197-2.313,0.213-2.299,0.228c-2.368,0.083-3.404,0.927-3.43,0.951c-5.801,3.978-7.024,3.705-7.078,3.677
	c-2.668-0.164-4.331-2.425-4.331-2.425c-2.667,3.27,3.486,3.486,3.486,3.433c1.197-1.09,1.089-0.271,1.143-0.328
	c-0.38,1.636,1.688,0.109,1.688,0.165c0.219,0.544-0.87,2.179-0.979,2.179c0.926,0,3.158-1.526,3.104-1.526
	c0.055,0.927,0.108,1.908,0.055,1.963c0.653,0,2.396-1.198,2.342-1.198c-0.327,0.979,0.87,0.545,0.87,0.599
	c2.016-1.088,2.016-0.325,2.016-0.325c0.979-0.33,3.92-0.488,3.92-0.488c0.464,0.029,0.804-0.036,1.068-0.14
	c0.025-0.01,0.047-0.021,0.07-0.03c0.108-0.048,0.202-0.1,0.281-0.156c0.026-0.02,0.055-0.037,0.079-0.058
	c0.086-0.071,0.16-0.145,0.213-0.212c0.005-0.007,0.007-0.012,0.012-0.018c0.055-0.072,0.091-0.131,0.119-0.178
	c0.01-0.019,0.022-0.037,0.029-0.05c0.005-0.008,0.008-0.01,0.012-0.014c0.003-0.005,0.006-0.005,0.008-0.007
	c0.005-0.005,0.012-0.019,0.016-0.014c0.082,0.044,0.159,0.068,0.234,0.086c0.022,0.005,0.042,0.006,0.063,0.009
	c0.031,0.004,0.063,0.012,0.092,0.012c0.012,0,0.021-0.007,0.033-0.008c0.096-0.005,0.183-0.024,0.259-0.062
	c0.012-0.006,0.021-0.014,0.032-0.02c0.066-0.036,0.123-0.078,0.171-0.125c0.006-0.006,0.016-0.01,0.022-0.016
	c0.005-0.007,0.007-0.012,0.012-0.018l0,0c0.047-0.051,0.082-0.099,0.104-0.141l0,0c0.004-0.009,0.004-0.014,0.008-0.021l0,0
	c0.014-0.033,0.018-0.055,0.011-0.065l0,0c-0.001-0.003,0.004-0.013,0.002-0.014l0,0c0.012,0.003,0.025,0.002,0.038,0.005
	c0.102,0.024,0.208,0.037,0.318,0.039c0.013,0,0.026,0.006,0.039,0.006l0,0l0,0l0,0c0.004,0,0.008-0.001,0.012-0.001
	c0.023,0,0.047-0.007,0.07-0.008c0.002,0,0.005,0,0.008,0c0.075-0.004,0.149-0.009,0.225-0.02c0.01-0.002,0.021-0.003,0.032-0.005
	c0.001,0,0.003-0.001,0.005-0.001c0.039-0.006,0.076-0.011,0.114-0.019c0.532-0.102,1.001-0.326,1.036-0.326
	c1.306,0.707,1.851-0.108,1.912-0.051c1.099,0.334,1.354-0.222,1.354-0.17c0.762,0.437,1.688,0.111,1.768,0.064
	c1.06,0.174,0.901-0.064,0.954-0.17c0.818,0.27,1.31-0.109,1.252-0.221c1.254,0.221,1.362-0.218,1.362-0.218l1.145,0.056
	c1.47,1.089,2.558,1.033,2.558,1.033c2.997,0.163,4.466,0.927,4.466,0.927c0.708,0.487,1.523,0.107,1.471,0.056
	c1.578-0.383,5.118,1.907,5.063,1.849c0.907,0.089,1.671,0.131,2.333,0.143l0,0c0.107,0.002,0.221,0.006,0.323,0.006
	c0.067,0,0.118-0.005,0.182-0.005c0.173-0.002,0.334-0.008,0.49-0.015c0.107-0.005,0.218-0.009,0.317-0.016
	c0.057-0.004,0.118-0.007,0.172-0.012c0.001,0,0.003,0,0.004,0l0,0c0.074-0.008,0.135-0.017,0.204-0.022
	c0.013-0.002,0.024-0.003,0.036-0.004c0.024-0.003,0.048-0.006,0.071-0.008c0.056-0.007,0.119-0.012,0.172-0.021
	c1.453-0.197,1.814-0.648,1.909-0.901c0.001-0.003,0.002-0.005,0.003-0.009c0.009-0.024,0.017-0.048,0.021-0.067
	c0,0,0-0.001,0-0.002c0.016-0.067,0.013-0.109,0.022-0.102c0.173-0.006,0.313-0.025,0.436-0.056
	c0.005-0.001,0.011-0.002,0.016-0.003c1.009-0.249,0.426-1.204,0.372-1.245c-0.002-0.002-0.006-0.005-0.006-0.003
	c0.001,0,0.002,0,0.003,0c0.045-0.004,0.08-0.01,0.122-0.015c1.708-0.189,0.472-0.966,0.42-0.966
	c-0.048-0.008-0.103-0.021-0.152-0.029c-0.172-0.031-0.353-0.069-0.542-0.113c-0.027-0.007-0.054-0.014-0.081-0.02
	c-0.071-0.019-0.14-0.033-0.212-0.053l0,0c-0.039-0.01-0.083-0.023-0.123-0.033c-0.314-0.082-0.64-0.174-0.978-0.276
	c-0.007-0.002-0.014-0.004-0.021-0.006v-0.001c-0.019-0.006-0.038-0.012-0.056-0.018c-0.367-0.112-0.743-0.234-1.118-0.362
	c-2.251-0.77-4.451-1.703-4.451-1.703l-0.325-0.651l-0.654-1.036c0.382,0,0.218-1.251,0.164-1.195
	c0.926-0.22,1.034-0.819,1.034-0.872c-0.763-1.089-0.272-1.035-0.325-1.089c0.598,0.437,0.814-0.272,0.761-0.326
	c1.035,0.162,1.142-1.093,1.142-1.144c1.036,0.382,1.145-0.982,1.145-1.092c0.709,0.22,1.416-1.63,1.306-1.63
	c0.894-0.075,1.096-0.704,1.12-1.133c0,0.001,0,0.001,0,0.002c0-0.001,0-0.002,0-0.004c0.011-0.196-0.013-0.354-0.03-0.39
	c0.315-0.059,0.544-0.146,0.727-0.24c0.003-0.003,0.007-0.004,0.01-0.006c0.09-0.048,0.165-0.098,0.229-0.148
	c0.001-0.002,0.003-0.003,0.004-0.004c0.003-0.003,0.008-0.006,0.011-0.008c0.062-0.054,0.114-0.104,0.154-0.158
	c0.002-0.003,0.005-0.006,0.007-0.009c0.041-0.056,0.074-0.106,0.097-0.159l0,0C53.026,28.186,53,28.007,53,27.984
	c0.268-0.142,0.463-0.278,0.626-0.413c0.042-0.035,0.095-0.071,0.132-0.105l0,0c0.354-0.334,0.431-0.622,0.443-0.776
	c0.006-0.077-0.004-0.121-0.004-0.121c0.151-0.005,0.27-0.032,0.388-0.061c1.118-0.261,0.86-1.409,0.811-1.409
	c1.198,0,0.873-1.362,0.873-1.417c1.523-0.433,0.98-1.413,0.98-1.413c1.796-0.164,1.252-2.07,1.197-2.07
	c1.034-0.11,0.707-0.979,0.707-0.979c0.924-0.109,0.924-0.869,0.872-0.869c2.777,0.271,2.177-1.637,2.177-1.637
	c1.852-1.306,0.871-1.416,0.871-1.36c2.123-1.635,1.579-1.795,1.524-1.795c-1.033,0,0-0.708-0.053-0.708
	c2.123-1.253,1.415-1.363,1.415-1.418c-1.308,0.382-0.926-0.106-0.926-0.106c4.735-2.561,3.375-2.45,3.32-2.45
	c-6.643,2.341-7.569,2.502-7.513,2.341c9.202-4.898,8.059-5.5,8.059-5.445c-1.907,0.162-9.42,4.738-9.474,4.738
	c8.602-5.936,7.676-7.459,7.676-7.459c-1.361,1.197-8.875,6.59-8.875,6.641c7.298-6.369,6.37-9.146,6.37-9.092
	c-3.265,5.009-7.839,8.493-7.786,8.438C62.036,3.702,61.271,0,61.329,0C57.297,7.786,54.521,9.912,54.576,9.912z M197.634,31.453
	l0.41-2.605h0.668l0.07-0.454h-1.824l-0.068,0.454h0.654l-0.416,2.605H197.634z M200.558,30.223
	c-0.104,0.152-0.133,0.209-0.195,0.364c0-0.151-0.012-0.19-0.072-0.355l-0.686-1.956l-1.232,3.179h0.523l0.568-1.541l0.059-0.153
	c0.018-0.062,0.023-0.113,0.027-0.236c0.029,0.151,0.062,0.306,0.082,0.355l0.58,1.697l1.117-1.688l0.07-0.132
	c0.043-0.09,0.064-0.128,0.109-0.242c-0.027,0.124-0.033,0.179-0.033,0.255l0.006,0.145l0.088,1.541h0.52l-0.225-3.179
	L200.558,30.223z"/>
</svg>
