<?xml version="1.0" encoding="utf-8"?>
<!-- Generator: Adobe Illustrator 16.0.4, SVG Export Plug-In . SVG Version: 6.00 Build 0)  -->
<!DOCTYPE svg PUBLIC "-//W3C//DTD SVG 1.1//EN" "http://www.w3.org/Graphics/SVG/1.1/DTD/svg11.dtd">
<svg version="1.1" id="Layer_1" xmlns="http://www.w3.org/2000/svg" xmlns:xlink="http://www.w3.org/1999/xlink" x="0px" y="0px"
	 width="295.79px" height="335.67px" viewBox="0 0 295.79 335.67" enable-background="new 0 0 295.79 335.67" xml:space="preserve">
<g id="Layer_2" display="none">
	<g id="A3zLsQ.tif" display="inline">
	</g>
</g>
<g id="Layer_5">
</g>
<path fill="#7F87A6" d="M268.98,102.95v-0.11V30.602c0.001,0,0.001,0.001,0.002,0.001V15.048c0-2.593-0.636-5.034-1.754-7.166
	C264.771,3.19,259.98,0,254.48,0H40.32c-7.99,0-14.5,6.75-14.5,15.05v88.14v1.2C9.54,128.14,0,156.86,0,187.771
	C0,269.319,66.35,335.67,147.9,335.67s147.89-66.351,147.89-147.899C295.79,156.24,285.86,126.98,268.98,102.95z M30.821,27.591
	V15.048c0-5.538,4.262-10.043,9.5-10.043h30.307c0.003-0.001,0.007-0.003,0.01-0.004h154.519c0.002,0.001,0.006,0.003,0.01,0.004
	h29.314c2.871,0,5.443,1.359,7.188,3.494c1.437,1.761,2.312,4.048,2.312,6.551v15.367H30.82L30.821,27.591L30.821,27.591z
	 M25.821,261.976C12.616,240.332,5,214.923,5,187.771c0-27.15,7.62-52.561,20.82-74.201v86.35h0.001V261.976z M263.982,270.998
	c-25.959,36.107-68.317,59.672-116.082,59.672c-48.376,0-91.212-24.174-117.079-61.069V101.56c0,0-0.001,0.001-0.001,0.002V97.52
	v-0.77V35.417h233.16V95.4v0.84v94.54h0.002V270.998z M268.982,111.983c13.81,21.989,21.808,47.968,21.808,75.788
	s-8,53.804-21.808,75.787V111.983z"/>
<circle fill="#7F87A6" cx="43.311" cy="18.408" r="3.667"/>
<circle fill="#7F87A6" cx="56.066" cy="18.408" r="3.667"/>
<circle fill="#7F87A6" cx="68.821" cy="18.408" r="3.667"/>
<g>
	<rect x="68.156" y="136.75" fill="#D9DDE7" width="159" height="9"/>
	<rect x="68.156" y="155.625" fill="#D9DDE7" width="159" height="9"/>
	<rect x="68.156" y="174.5" fill="#D9DDE7" width="159" height="9"/>
	<rect x="68.156" y="193.375" fill="#D9DDE7" width="159" height="9"/>
</g>
<g>
	<path fill="#D9DDE7" d="M164.046,95.346c-0.863,0-1.568,0.702-1.568,1.568s0.705,1.568,1.568,1.568
		c0.869,0,1.567-0.702,1.568-1.568C165.615,96.048,164.916,95.346,164.046,95.346z"/>
	<g>
		<path fill="#D9DDE7" d="M139.396,95.256c0,0.912,0.9,1.658,2,1.658h12.524c1.1,0,2-0.746,2-1.658s-0.9-1.658-2-1.658h-12.524
			C140.296,93.598,139.396,94.344,139.396,95.256z"/>
	</g>
	<path fill="#D9DDE7" d="M136.291,83.82c-1.597-0.859-3.676-0.096-4.645,1.705c-0.968,1.801-0.456,3.957,1.141,4.816
		c1.596,0.857,3.676,0.094,4.644-1.707C138.398,86.833,137.893,84.677,136.291,83.82z"/>
	<path fill="#D9DDE7" d="M131.264,95.346c-0.863,0-1.569,0.702-1.569,1.568s0.706,1.568,1.569,1.568
		c0.868,0,1.568-0.702,1.568-1.568S132.132,95.346,131.264,95.346z"/>
	<path fill="#D9DDE7" d="M119.155,57.7v57h57v-57H119.155z M167.036,81.267c0.169,0.577,2.688,3.541,2.688,5.579
		c0,0.954,0,15.314,0,16.011c0,0.7-0.989,1.003-2.618,1.003c-1.633,0-2.655-0.202-2.896-0.745c-0.235-0.548-0.202-1.261-0.202-1.261
		s-12.333,0-16.153,0c-0.071,0-0.137-0.013-0.196-0.032c-0.065,0.02-0.131,0.032-0.202,0.032c-3.82,0-16.153,0-16.153,0
		s0.033,0.714-0.203,1.261c-0.241,0.543-1.262,0.745-2.896,0.745c-1.628,0-2.618-0.303-2.618-1.003c0-0.695,0-15.057,0-16.011
		c0-2.132,2.52-5.003,2.688-5.58c0.169-0.578,0-1.021,0-1.021s-0.241,0-1.497,0c-1.257,0-1.973-1.396-1.973-1.804
		c0-0.41,0.813-1.634,2.414-1.634c1.601,0,2.143,1.021,2.143,1.36c0,0-0.104,1.396,0.611,1.396c0.716,0,1.569-3.502,2.35-5.24
		c0.781-1.735,1.771-3.506,2.143-4.017c0.377-0.511,1.907-1.394,5.344-1.496c0,0,4.661-0.271,7.83-0.271c0,0,0,0.06,0.017,0.161
		c0.012-0.102,0.017-0.161,0.017-0.161c3.164,0,7.825,0.271,7.825,0.271c3.438,0.103,4.968,0.985,5.344,1.496
		c0.373,0.511,1.361,2.281,2.143,4.017c0.782,1.738,1.635,5.24,2.351,5.24s0.612-1.396,0.612-1.396c0-0.339,0.547-1.36,2.143-1.36
		c1.601,0,2.415,1.225,2.415,1.635c0,0.406-0.711,1.803-1.974,1.803c-1.256,0-1.496,0-1.496,0S166.867,80.688,167.036,81.267z"/>
	<path fill="#D9DDE7" d="M159.628,83.787c-1.595,0.857-2.108,3.014-1.14,4.814c0.967,1.8,3.047,2.563,4.651,1.707
		c1.596-0.86,2.106-3.016,1.14-4.817C163.306,83.69,161.224,82.927,159.628,83.787z"/>
</g>
<rect x="68.156" y="212.611" fill="#D9DDE7" width="90.999" height="9"/>
<rect x="68.156" y="231.847" fill="#D9DDE7" width="44.824" height="9"/>
<rect x="68.156" y="251.083" fill="#D9DDE7" width="44.824" height="9"/>
</svg>
