<?xml version="1.0" encoding="utf-8"?>
<!-- Generator: Adobe Illustrator 16.0.4, SVG Export Plug-In . SVG Version: 6.00 Build 0)  -->
<!DOCTYPE svg PUBLIC "-//W3C//DTD SVG 1.1//EN" "http://www.w3.org/Graphics/SVG/1.1/DTD/svg11.dtd">
<svg version="1.1" id="Layer_1" xmlns="http://www.w3.org/2000/svg" xmlns:xlink="http://www.w3.org/1999/xlink" x="0px" y="0px"
	 width="391.68px" height="314.739px" viewBox="0 0 391.68 314.739" enable-background="new 0 0 391.68 314.739"
	 xml:space="preserve">
<path fill="#010101" d="M27.976,160.868h55.957v-6.997H27.976V160.868z M27.976,216.824h48.96v-6.996h-48.96V216.824L27.976,216.824
	z"/>
<path fill="#010101" d="M27.976,118.904h62.948v-6.996H27.976V118.904z M283.268,132.892c0-3.863-3.133-6.996-6.996-6.996
	c-3.236,0-5.939,2.213-6.732,5.199l-0.024-0.01l-27.976,104.917l0.024,0.01c-0.156,0.568-0.265,1.165-0.265,1.792
	c0,3.858,3.129,6.996,6.992,6.996c3.241,0,5.938-2.208,6.731-5.199l0.024,0.01l27.981-104.917l-0.025-0.01
	C283.16,134.116,283.268,133.514,283.268,132.892 M27.976,132.892h55.957v-6.996H27.976V132.892z M27.976,146.88h31.477v-6.991
	H27.976V146.88z"/>
<path fill="#010101" d="M230.812,150.376c0-3.863-3.128-6.992-6.996-6.992c-1.929,0-3.677,0.784-4.944,2.046l-34.973,34.972
	c-1.268,1.269-2.046,3.017-2.046,4.945c0,1.934,0.783,3.682,2.046,4.95l34.973,34.972c1.268,1.264,3.016,2.052,4.944,2.052
	c3.868,0,6.996-3.134,6.996-6.996c0-1.938-0.783-3.683-2.046-4.95l-30.027-30.027l30.027-30.022
	C230.023,154.058,230.812,152.305,230.812,150.376 M342.72,185.348c0-1.929-0.783-3.677-2.052-4.945l-34.972-34.972
	c-1.269-1.268-3.016-2.046-4.945-2.046c-3.867,0-6.996,3.133-6.996,6.992c0,1.929,0.783,3.677,2.052,4.945l30.027,30.023
	l-30.027,30.026c-1.264,1.269-2.047,3.021-2.047,4.95c0,3.862,3.129,6.996,6.996,6.996c1.93,0,3.678-0.788,4.945-2.052
	l34.973-34.972C341.937,189.029,342.72,187.277,342.72,185.348 M76.936,97.92h-48.96v6.997h48.96V97.92z M62.948,167.864H27.976
	v6.997h34.972V167.864z M27.976,188.849h62.948v-6.997H27.976V188.849z"/>
<path fill="#010101" d="M27.976,90.929h62.948v-6.997H27.976V90.929z M27.976,202.836h41.964v-6.996H27.976V202.836z"/>
<path fill="#010101" d="M34.972,27.976c-3.868,0-6.997,3.133-6.997,6.996s3.128,6.997,6.997,6.997c3.863,0,6.991-3.134,6.991-6.997
	S38.835,27.976,34.972,27.976"/>
<path fill="#010101" d="M55.956,27.976c-3.868,0-6.996,3.133-6.996,6.996s3.128,6.997,6.996,6.997c3.863,0,6.992-3.134,6.992-6.997
	S59.819,27.976,55.956,27.976"/>
<path fill="#010101" d="M76.936,27.976c-3.868,0-6.996,3.133-6.996,6.996s3.128,6.997,6.996,6.997c3.863,0,6.997-3.134,6.997-6.997
	S80.798,27.976,76.936,27.976"/>
<path fill="#010101" d="M118.904,265.784h6.996v-6.996h-6.996V265.784z M125.896,244.8h6.997v-6.996h-6.997V244.8z M118.904,251.797
	h6.996V244.8h-6.996V251.797z M118.904,237.809h6.996v-6.996h-6.996V237.809z M125.896,258.788h6.997v-6.991h-6.997V258.788z
	 M118.904,293.76h6.996v-6.996h-6.996V293.76z M139.883,272.775h-6.991v6.997h6.991V272.775z M139.883,244.8h-6.991v6.997h6.991
	V244.8z M139.883,258.788h-6.991v6.996h6.991V258.788z M139.883,230.812h-6.991v6.996h6.991V230.812z M139.883,216.824h-6.991v6.996
	h6.991V216.824z M118.904,279.772h6.996v-6.997h-6.996V279.772z M125.896,286.769h6.997v-6.996h-6.997V286.769z M125.896,272.775
	h6.997v-6.996h-6.997V272.775z M125.896,230.812h6.997v-6.997h-6.997V230.812z M139.883,286.769h-6.991v6.996h6.991V286.769z
	 M125.896,300.757h6.997v-6.997h-6.997V300.757z M118.904,125.896h6.996v-6.992h-6.996V125.896z M139.883,202.836h-6.991v6.992
	h6.991V202.836z M125.896,146.88h6.997v-6.991h-6.997V146.88z M125.896,132.892h6.997v-6.996h-6.997V132.892z M139.883,174.855
	h-6.991v6.996h6.991V174.855z M118.904,139.889h6.996v-6.997h-6.996V139.889z M139.883,188.849h-6.991v6.997h6.991V188.849z
	 M139.883,118.904h-6.991v6.992h6.991V118.904z M139.883,132.892h-6.991v6.997h6.991V132.892z M139.883,146.88h-6.991v6.997h6.991
	V146.88z M139.883,160.868h-6.991v6.991h6.991V160.868z M125.896,174.855h6.997v-6.996h-6.997V174.855z M125.896,188.849h6.997
	v-6.997h-6.997V188.849z M118.904,153.876h6.996v-6.997h-6.996V153.876z M118.904,195.84h6.996v-6.996h-6.996V195.84z
	 M125.896,216.824h6.997v-6.996h-6.997V216.824z M118.904,209.828h6.996v-6.992h-6.996V209.828z M125.896,202.836h6.997v-6.996
	h-6.997V202.836z M118.904,181.852h6.996v-6.996h-6.996V181.852z M118.904,167.864h6.996v-6.991h-6.996V167.864z M125.896,160.868
	h6.997v-6.997h-6.997V160.868z M118.904,223.815h6.996v-6.996h-6.996V223.815z M139.883,90.929h-6.991v6.991h6.991V90.929z
	 M139.883,104.917h-6.991v6.997h6.991V104.917z M118.904,83.932h6.996v-6.996h-6.996V83.932z M132.892,69.944h-6.997v6.992h6.997
	V69.944z M139.883,76.936h-6.991v6.996h6.991V76.936z M125.896,90.929h6.997v-6.997h-6.997V90.929z M125.896,118.904h6.997v-6.996
	h-6.997V118.904z M118.904,97.92h6.996v-6.991h-6.996V97.92z M118.904,111.908h6.996v-6.997h-6.996V111.908z M125.896,104.917h6.997
	V97.92h-6.997V104.917z"/>
<path fill="#010101" d="M363.704,0H27.976C12.524,0,0,12.529,0,27.976v258.788c0,15.447,12.529,27.976,27.976,27.976h335.729
	c15.447,0,27.976-12.528,27.976-27.976V27.976C391.68,12.529,379.151,0,363.704,0 M27.976,300.757
	c-7.726,0-13.988-6.263-13.988-13.988V69.944h90.928v230.812H27.976z M377.692,286.769c0,7.726-6.263,13.988-13.983,13.988h-244.8
	V69.944h258.788v216.824H377.692z M377.692,55.957H13.988V27.981c0-7.726,6.262-13.988,13.988-13.988h335.729
	c7.721,0,13.983,6.262,13.983,13.988v27.976H377.692z"/>
</svg>
