<?xml version="1.0" encoding="utf-8"?>
<!-- Generator: Adobe Illustrator 16.0.4, SVG Export Plug-In . SVG Version: 6.00 Build 0)  -->
<!DOCTYPE svg PUBLIC "-//W3C//DTD SVG 1.1//EN" "http://www.w3.org/Graphics/SVG/1.1/DTD/svg11.dtd">
<svg version="1.1" id="Layer_1" xmlns="http://www.w3.org/2000/svg" xmlns:xlink="http://www.w3.org/1999/xlink" x="0px" y="0px"
	 width="299.73px" height="299.733px" viewBox="0 0 299.73 299.733" enable-background="new 0 0 299.73 299.733"
	 xml:space="preserve">
<path fill="#DEDDDD" d="M297.041,284.066L193.062,180.082c36.338-42.957,34.269-107.531-6.219-148.019
	C166.176,11.383,138.686,0,109.45,0S52.724,11.39,32.057,32.063C11.383,52.736,0,80.221,0,109.457
	c0,29.235,11.383,56.72,32.057,77.394c20.673,20.673,48.158,32.056,77.394,32.056c26.16,0,50.911-9.117,70.635-25.84l103.969,103.98
	c1.793,1.793,4.143,2.687,6.493,2.687c2.35,0,4.7-0.894,6.493-2.687C300.626,293.46,300.626,287.653,297.041,284.066z
	 M45.037,173.869C27.834,156.66,18.36,133.783,18.36,109.457c0-24.327,9.467-47.198,26.677-64.407
	c17.204-17.209,40.08-26.683,64.413-26.683c24.339,0,47.209,9.474,64.413,26.683c35.515,35.515,35.515,93.306,0,128.819
	c-17.203,17.204-40.08,26.678-64.413,26.678S62.247,191.079,45.037,173.869z"/>
</svg>
