<?xml version="1.0" encoding="utf-8"?>
<!-- Generator: Adobe Illustrator 16.0.4, SVG Export Plug-In . SVG Version: 6.00 Build 0)  -->
<!DOCTYPE svg PUBLIC "-//W3C//DTD SVG 1.1//EN" "http://www.w3.org/Graphics/SVG/1.1/DTD/svg11.dtd">
<svg version="1.1" id="Layer_1" xmlns="http://www.w3.org/2000/svg" xmlns:xlink="http://www.w3.org/1999/xlink" x="0px" y="0px"
	 width="255.73px" height="281.532px" viewBox="0 0 255.73 281.532" enable-background="new 0 0 255.73 281.532"
	 xml:space="preserve">
<g>
</g>
<g>
</g>
<g>
</g>
<g>
</g>
<g>
	<path d="M153.778,77.628c-56.253,0-101.952,45.701-101.952,101.952c0,56.253,45.699,101.953,101.952,101.953
		c56.251,0,101.953-45.699,101.953-101.953C255.73,123.329,210.029,77.628,153.778,77.628z M153.775,272.264
		c-51.24,0-92.68-41.44-92.68-92.68c0-51.25,41.44-92.69,92.68-92.69c51.25,0,92.69,41.44,92.69,92.69
		C246.466,230.823,205.025,272.264,153.775,272.264z"/>
	<path d="M231.762,150.037c-11.932-31.489-42.36-53.872-77.984-53.872c-35.599,0-66.033,22.343-77.985,53.8
		c-0.621,1.617-0.236,3.575,0.951,4.838c1.186,1.262,3.117,1.765,4.77,1.245c23.397-7.38,48.74-13.523,72.265-13.542
		c23.52,0.014,48.861,6.221,72.265,13.613c1.65,0.522,3.582,0.017,4.77-1.245C232,153.613,232.385,151.655,231.762,150.037z
		 M153.778,133.238c-21.799,0.017-44.102,5.177-65.241,11.369c12.5-23.259,36.945-39.174,65.241-39.174
		c28.335,0,52.761,15.932,65.242,39.246C197.882,138.468,175.587,133.251,153.778,133.238z"/>
	<g>
		<path fill="#010101" d="M66.071,244.271h-55.45V10.621h116.826v47.792c0,2.933,2.377,5.31,5.31,5.31h47.792v8.193
			c3.618,0.994,7.163,2.168,10.621,3.517V55.227c0-1.408-0.56-2.759-1.555-3.754L139.698,1.556C138.702,0.56,137.351,0,135.943,0
			H5.311C2.377,0,0,2.377,0,5.311v244.271c0,2.934,2.377,5.311,5.311,5.311h70.313C72.217,251.563,69.021,248.019,66.071,244.271z
			 M138.067,14.975l38.127,38.127h-38.127V14.975z"/>
		<path fill="#010101" d="M31.861,100.895c0,2.933,2.377,5.311,5.311,5.311h31.777c3.23-3.772,6.715-7.32,10.425-10.62H37.172
			C34.239,95.585,31.861,97.962,31.861,100.895z"/>
		<path fill="#010101" d="M37.172,169.928h5.82c0.23-3.59,0.635-7.132,1.207-10.62h-7.026c-2.933,0-5.311,2.378-5.311,5.311
			S34.239,169.928,37.172,169.928z"/>
		<path fill="#010101" d="M37.172,138.067h12.776c1.396-3.637,2.974-7.183,4.736-10.621H37.172c-2.933,0-5.311,2.377-5.311,5.311
			C31.861,135.689,34.239,138.067,37.172,138.067z"/>
		<path fill="#010101" d="M37.172,201.79h8.436c-0.813-3.479-1.458-7.022-1.928-10.62h-6.508c-2.933,0-5.311,2.377-5.311,5.31
			S34.239,201.79,37.172,201.79z"/>
	</g>
	<g>
		<path d="M149.641,249.459c-7.805-35.626-32.342-60.168-67.323-67.339c-0.222-0.045-0.448-0.068-0.671-0.068
			c-1.288,0-2.597,0.767-3.59,2.103c-0.966,1.298-1.404,2.871-1.091,3.913c9.629,32.069,34.574,57.046,66.726,66.813
			c0.372,0.119,0.748,0.178,1.132,0.178h0c1.383,0,2.855-0.766,3.841-1.999C149.551,251.952,149.906,250.64,149.641,249.459z
			 M135.953,241.351c-20.302-9.133-36.477-25.342-45.545-45.643l-0.95-2.126l2.196,0.775c21.947,7.751,37.733,23.569,45.651,45.745
			l0.79,2.211L135.953,241.351z"/>
		<path d="M230.698,182.051c-0.224,0-0.449,0.023-0.671,0.068c-34.981,7.171-59.519,31.713-67.322,67.333
			c-0.267,1.187,0.088,2.498,0.974,3.604c0.987,1.233,2.459,2,3.843,2c0.384,0,0.759-0.059,1.117-0.173
			c32.168-9.772,57.111-34.749,66.74-66.817c0.313-1.042-0.125-2.614-1.09-3.913C233.295,182.818,231.986,182.051,230.698,182.051z
			 M221.937,195.708c-9.067,20.301-25.243,36.511-45.544,45.643l-2.142,0.963l0.79-2.211c7.918-22.176,23.704-37.994,45.65-45.745
			l2.196-0.775L221.937,195.708z"/>
	</g>
</g>
</svg>
