<?xml version="1.0" encoding="utf-8"?>
<!-- Generator: Adobe Illustrator 16.0.4, SVG Export Plug-In . SVG Version: 6.00 Build 0)  -->
<!DOCTYPE svg PUBLIC "-//W3C//DTD SVG 1.1//EN" "http://www.w3.org/Graphics/SVG/1.1/DTD/svg11.dtd">
<svg version="1.1" id="Layer_1" xmlns="http://www.w3.org/2000/svg" xmlns:xlink="http://www.w3.org/1999/xlink" x="0px" y="0px"
	 width="489.6px" height="428.4px" viewBox="0 0 489.6 428.4" enable-background="new 0 0 489.6 428.4" xml:space="preserve">
<path fill="#010101" d="M306,367.2v61.2H0v-61.2c0-77.157,24.327-65.621,115.698-105.065C83.614,239.062,61.2,190.408,61.2,153
	c0-50.674,41.065-91.8,91.8-91.8c50.673,0,91.8,41.126,91.8,91.8c0,37.408-22.476,86.062-54.56,109.134
	C281.611,301.579,306,290.042,306,367.2z M373.84,200.935c32.084-23.073,54.56-71.727,54.56-109.135c0-50.673-41.126-91.8-91.8-91.8
	c-44.706,0-81.886,31.977-90.071,74.235c17.993,21.267,28.871,48.761,28.871,78.765c0,6.931-5.6,61.4-32.39,97.232
	c2.448,0.902,4.835,1.789,7.114,2.631C308.509,274.62,336.6,288.542,336.6,367.2h153V306
	C489.6,228.841,465.212,240.378,373.84,200.935z"/>
</svg>
